<svg width="112" height="38" viewBox="0 0 112 38" fill="none" xmlns="http://www.w3.org/2000/svg">
<path d="M11.305 6.725V1.475H13.545V6.725H11.305ZM6.615 6.725V1.475H8.855V6.725H6.615ZM11.305 33.43V28.18H13.545V33.43H11.305ZM6.615 33.43V28.18H8.855V33.43H6.615ZM3.395 30V5.01H9.135C11.095 5.01 12.7283 5.20833 14.035 5.605C15.365 6.00167 16.3567 6.655 17.01 7.565C17.6867 8.475 18.025 9.68833 18.025 11.205C18.025 12.185 17.8617 13.06 17.535 13.83C17.2317 14.5767 16.765 15.2067 16.135 15.72C15.5283 16.21 14.77 16.5483 13.86 16.735V16.91C14.7933 17.0733 15.6217 17.3767 16.345 17.82C17.0917 18.2633 17.675 18.8933 18.095 19.71C18.5383 20.5267 18.76 21.5883 18.76 22.895C18.76 24.4117 18.4333 25.7067 17.78 26.78C17.15 27.83 16.24 28.635 15.05 29.195C13.86 29.7317 12.4367 30 10.78 30H3.395ZM9.765 15.65C11.6783 15.65 12.985 15.3117 13.685 14.635C14.4083 13.935 14.77 12.9083 14.77 11.555C14.77 10.1783 14.3267 9.19833 13.44 8.615C12.5767 8.00833 11.1883 7.705 9.275 7.705H6.545V15.65H9.765ZM6.545 18.275V27.34H10.185C12.1217 27.34 13.475 26.9083 14.245 26.045C15.015 25.1817 15.4 24.05 15.4 22.65C15.4 21.7633 15.225 20.9933 14.875 20.34C14.5483 19.6867 13.9883 19.185 13.195 18.835C12.4017 18.4617 11.3167 18.275 9.94 18.275H6.545ZM25.2093 30H22.7593V13.9H25.2093V30ZM22.2343 8.02C22.2343 7.55333 22.3976 7.13333 22.7243 6.76C23.0743 6.38667 23.4943 6.2 23.9843 6.2C24.451 6.2 24.871 6.38667 25.2443 6.76C25.6176 7.13333 25.8043 7.55333 25.8043 8.02C25.8043 8.51 25.6176 8.93 25.2443 9.28C24.871 9.60667 24.451 9.77 23.9843 9.77C23.4943 9.77 23.0743 9.60667 22.7243 9.28C22.3976 8.93 22.2343 8.51 22.2343 8.02ZM31.3898 15.545H28.6948V14.25L31.4598 13.9L31.9848 9.035H33.8398V13.9H37.6198V15.545H33.8398V26.71C33.8398 27.4567 33.9448 27.9467 34.1548 28.18C34.3881 28.4133 34.7381 28.53 35.2048 28.53C35.7415 28.53 36.2198 28.4483 36.6398 28.285C37.0598 28.1217 37.4331 27.9233 37.7598 27.69L38.2498 29.545C37.8531 29.7317 37.3281 29.9183 36.6748 30.105C36.0448 30.2917 35.3448 30.385 34.5748 30.385C33.8281 30.385 33.2448 30.28 32.8248 30.07C32.4048 29.86 32.0898 29.58 31.8798 29.23C31.6698 28.88 31.5298 28.495 31.4598 28.075C31.4131 27.6317 31.3898 27.2 31.3898 26.78V15.545ZM43.7265 12.465C43.7265 13.0483 43.8315 13.5383 44.0415 13.935C44.2748 14.3083 44.6248 14.6467 45.0915 14.95C45.5815 15.2533 46.1882 15.545 46.9115 15.825C47.6582 16.0817 48.5448 16.385 49.5715 16.735C50.4348 17.015 51.2865 17.3417 52.1265 17.715C52.9665 18.065 53.7132 18.5083 54.3665 19.045C55.0432 19.5583 55.5798 20.2117 55.9765 21.005C56.3732 21.775 56.5715 22.72 56.5715 23.84C56.5715 25.03 56.3382 26.045 55.8715 26.885C55.4048 27.725 54.7865 28.4133 54.0165 28.95C53.2465 29.4633 52.3598 29.8367 51.3565 30.07C50.3532 30.3033 49.3148 30.42 48.2415 30.42C46.7248 30.42 45.3132 30.2333 44.0065 29.86C42.6998 29.4867 41.5682 29.0317 40.6115 28.495L41.3465 25.94C41.7898 26.2433 42.2332 26.535 42.6765 26.815C43.1198 27.0717 43.5982 27.2933 44.1115 27.48C44.6482 27.6667 45.2315 27.8183 45.8615 27.935C46.4915 28.0517 47.2148 28.11 48.0315 28.11C49.0815 28.11 49.9798 28.0167 50.7265 27.83C51.4732 27.6433 52.0798 27.3867 52.5465 27.06C53.0132 26.71 53.3515 26.3017 53.5615 25.835C53.7715 25.3683 53.8765 24.8667 53.8765 24.33C53.8765 23.5367 53.6898 22.8717 53.3165 22.335C52.9432 21.775 52.4532 21.2967 51.8465 20.9C51.2632 20.5033 50.6098 20.1767 49.8865 19.92C49.1865 19.64 48.4865 19.3833 47.7865 19.15C46.7832 18.8233 45.8732 18.4733 45.0565 18.1C44.2398 17.7267 43.5398 17.2833 42.9565 16.77C42.3965 16.2567 41.9532 15.6617 41.6265 14.985C41.3232 14.3083 41.1715 13.5033 41.1715 12.57C41.1715 11.52 41.3582 10.6333 41.7315 9.91C42.1282 9.16333 42.6532 8.55667 43.3065 8.09C43.9832 7.62333 44.7765 7.285 45.6865 7.075C46.5965 6.84167 47.5765 6.725 48.6265 6.725C49.8865 6.725 51.0998 6.85333 52.2665 7.11C53.4332 7.36667 54.4248 7.68167 55.2415 8.055L54.5065 10.75C54.1332 10.4233 53.6898 10.155 53.1765 9.945C52.6865 9.71167 52.1615 9.53667 51.6015 9.42C51.0648 9.28 50.5282 9.18667 49.9915 9.14C49.4548 9.07 48.9532 9.035 48.4865 9.035C47.0165 9.035 45.8498 9.315 44.9865 9.875C44.1465 10.4117 43.7265 11.275 43.7265 12.465ZM71.1238 30L70.8438 27.13H70.7038C70.4238 27.5733 70.0505 27.9933 69.5838 28.39C69.1172 28.7867 68.5922 29.1367 68.0088 29.44C67.4488 29.7433 66.8305 29.9767 66.1538 30.14C65.5005 30.3267 64.8472 30.42 64.1938 30.42C62.6538 30.42 61.4988 29.9767 60.7288 29.09C59.9588 28.18 59.5738 27.0483 59.5738 25.695C59.5738 24.365 59.9122 23.3033 60.5888 22.51C61.2655 21.7167 62.0938 21.1217 63.0738 20.725C64.0538 20.3283 65.0805 20.0717 66.1538 19.955C67.2505 19.8383 68.2072 19.78 69.0238 19.78H70.5988V19.36C70.5988 18.4733 70.4705 17.7967 70.2138 17.33C69.9805 16.8633 69.6305 16.4667 69.1638 16.14C68.7672 15.8833 68.3355 15.7083 67.8688 15.615C67.4255 15.4983 66.8305 15.44 66.0838 15.44C65.1038 15.44 64.2405 15.5683 63.4938 15.825C62.7472 16.0817 62.0238 16.42 61.3238 16.84L60.7638 14.74C62.3272 13.83 64.1938 13.375 66.3638 13.375C67.2272 13.375 68.0438 13.4567 68.8138 13.62C69.5838 13.76 70.2605 14.0167 70.8438 14.39C71.5205 14.81 72.0572 15.405 72.4538 16.175C72.8505 16.945 73.0488 17.9017 73.0488 19.045V30H71.1238ZM64.9288 28.355C65.8855 28.355 66.9005 28.0517 67.9738 27.445C69.0472 26.8383 69.9222 25.9633 70.5988 24.82V21.565H70.2838C69.3272 21.565 68.3705 21.6 67.4138 21.67C66.4572 21.74 65.5822 21.915 64.7888 22.195C64.0188 22.475 63.3888 22.8833 62.8988 23.42C62.4088 23.9333 62.1638 24.645 62.1638 25.555C62.1638 26.465 62.4088 27.165 62.8988 27.655C63.4122 28.1217 64.0888 28.355 64.9288 28.355ZM79.1755 15.545H76.4805V14.25L79.1755 13.935C79.1755 12.6283 79.2105 11.5083 79.2805 10.575C79.3738 9.64167 79.4905 8.86 79.6305 8.23C79.7705 7.57667 79.9221 7.05167 80.0855 6.655C80.2721 6.235 80.4471 5.89666 80.6105 5.64C81.0538 4.98667 81.6021 4.54333 82.2555 4.31C82.9088 4.05333 83.5855 3.925 84.2855 3.925C84.3788 3.925 84.5421 3.93666 84.7755 3.96C85.0088 3.96 85.2655 3.98333 85.5455 4.03C85.8488 4.05333 86.1521 4.11166 86.4555 4.205C86.7588 4.275 87.0505 4.38 87.3305 4.52L86.7355 6.585C86.6655 6.585 86.5021 6.55 86.2455 6.48C85.9888 6.38666 85.6971 6.29333 85.3705 6.2C85.0671 6.08333 84.7288 5.97833 84.3555 5.885C84.0055 5.79167 83.6905 5.745 83.4105 5.745C83.0605 5.745 82.7688 5.85 82.5355 6.06C82.3021 6.24667 82.1155 6.57333 81.9755 7.04C81.8588 7.48333 81.7655 8.07833 81.6955 8.825C81.6488 9.57167 81.6255 10.4933 81.6255 11.59V13.9H85.4055V15.545H81.6255V30H79.1755V15.545ZM95.731 13.375C97.7843 13.375 99.371 13.9 100.491 14.95C101.611 15.9767 102.171 17.435 102.171 19.325C102.171 19.7217 102.148 20.13 102.101 20.55C102.054 20.9467 101.973 21.2383 101.856 21.425H90.061V21.775C90.061 22.6617 90.1777 23.5133 90.411 24.33C90.6443 25.1467 90.9943 25.87 91.461 26.5C91.9277 27.13 92.511 27.6317 93.211 28.005C93.9343 28.3783 94.786 28.565 95.766 28.565C96.326 28.565 96.8743 28.5067 97.411 28.39C97.9477 28.25 98.461 28.0867 98.951 27.9C99.441 27.69 99.896 27.4683 100.316 27.235C100.736 27.0017 101.109 26.7683 101.436 26.535L101.856 28.53C101.553 28.7167 101.179 28.9267 100.736 29.16C100.293 29.37 99.8027 29.5683 99.266 29.755C98.7293 29.9417 98.1343 30.0933 97.481 30.21C96.851 30.35 96.186 30.42 95.486 30.42C94.1793 30.42 93.0243 30.1983 92.021 29.755C91.0177 29.2883 90.1777 28.67 89.501 27.9C88.8243 27.1067 88.311 26.1967 87.961 25.17C87.611 24.1433 87.436 23.07 87.436 21.95C87.436 20.8067 87.611 19.7217 87.961 18.695C88.3343 17.645 88.871 16.7233 89.571 15.93C90.271 15.1367 91.1343 14.5183 92.161 14.075C93.211 13.6083 94.401 13.375 95.731 13.375ZM95.626 15.335C94.086 15.335 92.8843 15.7433 92.021 16.56C91.181 17.3533 90.6093 18.3567 90.306 19.57H99.861C99.8843 19.4533 99.896 19.3483 99.896 19.255C99.896 19.1617 99.896 19.0567 99.896 18.94C99.896 18.3567 99.7793 17.8433 99.546 17.4C99.3127 16.9333 98.9977 16.5483 98.601 16.245C98.2043 15.9417 97.7493 15.72 97.236 15.58C96.7227 15.4167 96.186 15.335 95.626 15.335Z" fill="#1F1F1F"/>
</svg>
