<svg width="170" height="31" viewBox="0 0 170 31" fill="none" xmlns="http://www.w3.org/2000/svg">
<path d="M18.06 7.815C18.06 9.015 17.805 10.11 17.295 11.1C16.815 12.06 16.05 12.885 15 13.575C16.8 14.175 18.21 15.12 19.23 16.41C20.25 17.7 20.76 19.335 20.76 21.315C20.76 22.575 20.535 23.76 20.085 24.87C19.635 25.98 18.945 26.955 18.015 27.795C17.085 28.635 15.93 29.31 14.55 29.82C13.17 30.3 11.55 30.54 9.69 30.54C8.04 30.54 6.435 30.48 4.875 30.36C3.315 30.27 2.01 30.15 0.96 30V0.299999C1.29 0.269999 1.755 0.254999 2.355 0.254999C2.955 0.224998 3.6 0.194997 4.29 0.164998C4.98 0.134998 5.67 0.119998 6.36 0.119998C7.05 0.0899988 7.665 0.074999 8.205 0.074999C11.385 0.074999 13.815 0.734999 15.495 2.055C17.205 3.345 18.06 5.265 18.06 7.815ZM9.465 16.005C8.895 16.005 8.325 16.02 7.755 16.05C7.185 16.05 6.645 16.065 6.135 16.095V26.13C6.675 26.19 7.23 26.22 7.8 26.22C8.37 26.22 8.955 26.22 9.555 26.22C11.385 26.22 12.81 25.77 13.83 24.87C14.85 23.97 15.36 22.665 15.36 20.955C15.36 19.425 14.895 18.225 13.965 17.355C13.035 16.455 11.535 16.005 9.465 16.005ZM9.06 4.305C8.46 4.305 7.92 4.335 7.44 4.395C6.99 4.425 6.555 4.47 6.135 4.53V12.225C6.495 12.255 6.855 12.27 7.215 12.27C7.605 12.27 7.995 12.27 8.385 12.27C9.705 12.27 10.74 11.835 11.49 10.965C12.24 10.065 12.615 8.895 12.615 7.455C12.615 6.555 12.3 5.805 11.67 5.205C11.07 4.605 10.2 4.305 9.06 4.305ZM27.2521 30H25.0821V15.74H27.2521V30ZM24.6171 10.532C24.6171 10.1187 24.7617 9.74667 25.0511 9.416C25.3611 9.08533 25.7331 8.92 26.1671 8.92C26.5804 8.92 26.9524 9.08533 27.2831 9.416C27.6137 9.74667 27.7791 10.1187 27.7791 10.532C27.7791 10.966 27.6137 11.338 27.2831 11.648C26.9524 11.9373 26.5804 12.082 26.1671 12.082C25.7331 12.082 25.3611 11.9373 25.0511 11.648C24.7617 11.338 24.6171 10.966 24.6171 10.532ZM32.7262 17.197H30.3392V16.05L32.7882 15.74L33.2532 11.431H34.8962V15.74H38.2442V17.197H34.8962V27.086C34.8962 27.7473 34.9892 28.1813 35.1752 28.388C35.3819 28.5947 35.6919 28.698 36.1052 28.698C36.5806 28.698 37.0042 28.6257 37.3762 28.481C37.7482 28.3363 38.0789 28.1607 38.3682 27.954L38.8022 29.597C38.4509 29.7623 37.9859 29.9277 37.4072 30.093C36.8492 30.2583 36.2292 30.341 35.5472 30.341C34.8859 30.341 34.3692 30.248 33.9972 30.062C33.6252 29.876 33.3462 29.628 33.1602 29.318C32.9742 29.008 32.8502 28.667 32.7882 28.295C32.7469 27.9023 32.7262 27.52 32.7262 27.148V17.197ZM45.978 17.011C44.986 17.011 44.2627 17.197 43.808 17.569C43.374 17.9203 43.157 18.406 43.157 19.026C43.157 19.2327 43.188 19.4497 43.25 19.677C43.312 19.9043 43.4257 20.1213 43.591 20.328C43.777 20.514 44.0147 20.7 44.304 20.886C44.614 21.0513 45.017 21.1857 45.513 21.289L47.714 21.785C48.582 21.971 49.2743 22.2293 49.791 22.56C50.3283 22.87 50.7417 23.211 51.031 23.583C51.3203 23.955 51.5063 24.3373 51.589 24.73C51.6923 25.102 51.744 25.4533 51.744 25.784C51.744 26.4247 51.6097 27.024 51.341 27.582C51.093 28.14 50.721 28.6257 50.225 29.039C49.7497 29.4523 49.1607 29.7727 48.458 30C47.7553 30.248 46.97 30.372 46.102 30.372C45.0067 30.372 43.994 30.217 43.064 29.907C42.134 29.5763 41.39 29.2147 40.832 28.822L41.39 26.807C42.134 27.489 42.9607 27.985 43.87 28.295C44.7793 28.605 45.5957 28.76 46.319 28.76C47.3523 28.76 48.1377 28.512 48.675 28.016C49.2123 27.4993 49.481 26.962 49.481 26.404C49.481 26.218 49.4707 26.0113 49.45 25.784C49.4293 25.536 49.3467 25.288 49.202 25.04C49.0573 24.792 48.8403 24.5647 48.551 24.358C48.2617 24.1307 47.8483 23.955 47.311 23.831L44.335 23.087C43.653 22.9217 43.095 22.7047 42.661 22.436C42.227 22.1673 41.886 21.878 41.638 21.568C41.39 21.2373 41.2143 20.8963 41.111 20.545C41.0077 20.173 40.956 19.801 40.956 19.429C40.956 18.1683 41.421 17.166 42.351 16.422C43.3017 15.6573 44.5623 15.275 46.133 15.275C46.939 15.275 47.807 15.3887 48.737 15.616C49.667 15.8227 50.4523 16.1327 51.093 16.546L50.504 18.406C50.0907 18.0547 49.4707 17.7343 48.644 17.445C47.838 17.1557 46.9493 17.011 45.978 17.011ZM64.5286 30L64.2806 27.458H64.1566C63.9086 27.8507 63.5779 28.2227 63.1646 28.574C62.7513 28.9253 62.2863 29.2353 61.7696 29.504C61.2736 29.7727 60.7259 29.9793 60.1266 30.124C59.5479 30.2893 58.9693 30.372 58.3906 30.372C57.0266 30.372 56.0036 29.9793 55.3216 29.194C54.6396 28.388 54.2986 27.3857 54.2986 26.187C54.2986 25.009 54.5983 24.0687 55.1976 23.366C55.7969 22.6633 56.5306 22.1363 57.3986 21.785C58.2666 21.4337 59.1759 21.2063 60.1266 21.103C61.0979 20.9997 61.9453 20.948 62.6686 20.948H64.0636V20.576C64.0636 19.7907 63.9499 19.1913 63.7226 18.778C63.5159 18.3647 63.2059 18.0133 62.7926 17.724C62.4413 17.4967 62.0589 17.3417 61.6456 17.259C61.2529 17.1557 60.7259 17.104 60.0646 17.104C59.1966 17.104 58.4319 17.2177 57.7706 17.445C57.1093 17.6723 56.4686 17.972 55.8486 18.344L55.3526 16.484C56.7373 15.678 58.3906 15.275 60.3126 15.275C61.0773 15.275 61.8006 15.3473 62.4826 15.492C63.1646 15.616 63.7639 15.8433 64.2806 16.174C64.8799 16.546 65.3553 17.073 65.7066 17.755C66.0579 18.437 66.2336 19.2843 66.2336 20.297V30H64.5286ZM59.0416 28.543C59.8889 28.543 60.7879 28.2743 61.7386 27.737C62.6893 27.1997 63.4643 26.4247 64.0636 25.412V22.529H63.7846C62.9373 22.529 62.0899 22.56 61.2426 22.622C60.3953 22.684 59.6203 22.839 58.9176 23.087C58.2356 23.335 57.6776 23.6967 57.2436 24.172C56.8096 24.6267 56.5926 25.257 56.5926 26.063C56.5926 26.869 56.8096 27.489 57.2436 27.923C57.6983 28.3363 58.2976 28.543 59.0416 28.543ZM71.66 17.197H69.273V16.05L71.66 15.771C71.66 14.6137 71.691 13.6217 71.753 12.795C71.8357 11.9683 71.939 11.276 72.063 10.718C72.187 10.1393 72.3214 9.67433 72.466 9.323C72.6314 8.951 72.7864 8.65133 72.931 8.424C73.3237 7.84533 73.8094 7.45267 74.388 7.246C74.9667 7.01867 75.566 6.905 76.186 6.905C76.2687 6.905 76.4134 6.91533 76.62 6.936C76.8267 6.936 77.054 6.95667 77.302 6.998C77.5707 7.01867 77.8394 7.07033 78.108 7.153C78.3767 7.215 78.635 7.308 78.883 7.432L78.356 9.261C78.294 9.261 78.1494 9.23 77.922 9.168C77.6947 9.08533 77.4364 9.00267 77.147 8.92C76.8784 8.81667 76.5787 8.72367 76.248 8.641C75.938 8.55833 75.659 8.517 75.411 8.517C75.101 8.517 74.8427 8.61 74.636 8.796C74.4294 8.96133 74.264 9.25067 74.14 9.664C74.0367 10.0567 73.954 10.5837 73.892 11.245C73.8507 11.9063 73.83 12.7227 73.83 13.694V15.74H77.178V17.197H73.83V30H71.66V17.197ZM86.3235 15.275C88.1422 15.275 89.5475 15.74 90.5395 16.67C91.5315 17.5793 92.0275 18.871 92.0275 20.545C92.0275 20.8963 92.0069 21.258 91.9655 21.63C91.9242 21.9813 91.8519 22.2397 91.7485 22.405H81.3015V22.715C81.3015 23.5003 81.4049 24.2547 81.6115 24.978C81.8182 25.7013 82.1282 26.342 82.5415 26.9C82.9549 27.458 83.4715 27.9023 84.0915 28.233C84.7322 28.5637 85.4865 28.729 86.3545 28.729C86.8505 28.729 87.3362 28.6773 87.8115 28.574C88.2869 28.45 88.7415 28.3053 89.1755 28.14C89.6095 27.954 90.0125 27.7577 90.3845 27.551C90.7565 27.3443 91.0872 27.1377 91.3765 26.931L91.7485 28.698C91.4799 28.8633 91.1492 29.0493 90.7565 29.256C90.3639 29.442 89.9299 29.6177 89.4545 29.783C88.9792 29.9483 88.4522 30.0827 87.8735 30.186C87.3155 30.31 86.7265 30.372 86.1065 30.372C84.9492 30.372 83.9262 30.1757 83.0375 29.783C82.1489 29.3697 81.4049 28.822 80.8055 28.14C80.2062 27.4373 79.7515 26.6313 79.4415 25.722C79.1315 24.8127 78.9765 23.862 78.9765 22.87C78.9765 21.8573 79.1315 20.8963 79.4415 19.987C79.7722 19.057 80.2475 18.2407 80.8675 17.538C81.4875 16.8353 82.2522 16.2877 83.1615 15.895C84.0915 15.4817 85.1455 15.275 86.3235 15.275ZM86.2305 17.011C84.8665 17.011 83.8022 17.3727 83.0375 18.096C82.2935 18.7987 81.7872 19.6873 81.5185 20.762H89.9815C90.0022 20.6587 90.0125 20.5657 90.0125 20.483C90.0125 20.4003 90.0125 20.3073 90.0125 20.204C90.0125 19.6873 89.9092 19.2327 89.7025 18.84C89.4959 18.4267 89.2169 18.0857 88.8655 17.817C88.5142 17.5483 88.1112 17.352 87.6565 17.228C87.2019 17.0833 86.7265 17.011 86.2305 17.011ZM95.7352 28.915C95.7352 28.5223 95.8695 28.1813 96.1382 27.892C96.4068 27.582 96.7478 27.427 97.1612 27.427C97.5538 27.427 97.8948 27.582 98.1842 27.892C98.4942 28.1813 98.6492 28.5223 98.6492 28.915C98.6492 29.3077 98.4942 29.6487 98.1842 29.938C97.8948 30.2067 97.5538 30.341 97.1612 30.341C96.7478 30.341 96.4068 30.2067 96.1382 29.938C95.8695 29.6487 95.7352 29.3077 95.7352 28.915ZM105.108 14.469C105.108 14.9857 105.201 15.4197 105.387 15.771C105.594 16.1017 105.904 16.4013 106.317 16.67C106.751 16.9387 107.288 17.197 107.929 17.445C108.59 17.6723 109.376 17.941 110.285 18.251C111.05 18.499 111.804 18.7883 112.548 19.119C113.292 19.429 113.953 19.8217 114.532 20.297C115.131 20.7517 115.607 21.3303 115.958 22.033C116.309 22.715 116.485 23.552 116.485 24.544C116.485 25.598 116.278 26.497 115.865 27.241C115.452 27.985 114.904 28.5947 114.222 29.07C113.54 29.5247 112.755 29.8553 111.866 30.062C110.977 30.2687 110.058 30.372 109.107 30.372C107.764 30.372 106.513 30.2067 105.356 29.876C104.199 29.5453 103.196 29.1423 102.349 28.667L103 26.404C103.393 26.6727 103.785 26.931 104.178 27.179C104.571 27.4063 104.994 27.6027 105.449 27.768C105.924 27.9333 106.441 28.0677 106.999 28.171C107.557 28.2743 108.198 28.326 108.921 28.326C109.851 28.326 110.647 28.2433 111.308 28.078C111.969 27.9127 112.507 27.6853 112.92 27.396C113.333 27.086 113.633 26.7243 113.819 26.311C114.005 25.8977 114.098 25.4533 114.098 24.978C114.098 24.2753 113.933 23.6863 113.602 23.211C113.271 22.715 112.837 22.2913 112.3 21.94C111.783 21.5887 111.205 21.2993 110.564 21.072C109.944 20.824 109.324 20.5967 108.704 20.39C107.815 20.1007 107.009 19.7907 106.286 19.46C105.563 19.1293 104.943 18.7367 104.426 18.282C103.93 17.8273 103.537 17.3003 103.248 16.701C102.979 16.1017 102.845 15.3887 102.845 14.562C102.845 13.632 103.01 12.8467 103.341 12.206C103.692 11.5447 104.157 11.0073 104.736 10.594C105.335 10.1807 106.038 9.881 106.844 9.695C107.65 9.48833 108.518 9.385 109.448 9.385C110.564 9.385 111.639 9.49867 112.672 9.726C113.705 9.95333 114.584 10.2323 115.307 10.563L114.656 12.95C114.325 12.6607 113.933 12.423 113.478 12.237C113.044 12.0303 112.579 11.8753 112.083 11.772C111.608 11.648 111.132 11.5653 110.657 11.524C110.182 11.462 109.737 11.431 109.324 11.431C108.022 11.431 106.989 11.679 106.224 12.175C105.48 12.6503 105.108 13.415 105.108 14.469ZM120.671 17.197H118.284V16.05L120.733 15.74L121.198 11.431H122.841V15.74H126.189V17.197H122.841V27.086C122.841 27.7473 122.934 28.1813 123.12 28.388C123.326 28.5947 123.636 28.698 124.05 28.698C124.525 28.698 124.949 28.6257 125.321 28.481C125.693 28.3363 126.023 28.1607 126.313 27.954L126.747 29.597C126.395 29.7623 125.93 29.9277 125.352 30.093C124.794 30.2583 124.174 30.341 123.492 30.341C122.83 30.341 122.314 30.248 121.942 30.062C121.57 29.876 121.291 29.628 121.105 29.318C120.919 29.008 120.795 28.667 120.733 28.295C120.691 27.9023 120.671 27.52 120.671 27.148V17.197ZM135.999 15.275C137.26 15.275 138.345 15.492 139.254 15.926C140.164 16.3393 140.908 16.9077 141.486 17.631C142.086 18.3337 142.52 19.15 142.788 20.08C143.078 20.9893 143.222 21.9503 143.222 22.963C143.222 23.9757 143.078 24.9367 142.788 25.846C142.52 26.7347 142.096 27.52 141.517 28.202C140.939 28.8633 140.195 29.3903 139.285 29.783C138.397 30.1757 137.343 30.372 136.123 30.372C134.863 30.372 133.767 30.1653 132.837 29.752C131.928 29.3387 131.174 28.791 130.574 28.109C129.975 27.4063 129.531 26.6003 129.241 25.691C128.952 24.7817 128.807 23.8207 128.807 22.808C128.807 21.7953 128.952 20.8343 129.241 19.925C129.531 19.0157 129.965 18.22 130.543 17.538C131.143 16.8353 131.897 16.2877 132.806 15.895C133.716 15.4817 134.78 15.275 135.999 15.275ZM136.092 28.729C136.919 28.729 137.632 28.574 138.231 28.264C138.851 27.954 139.358 27.5407 139.75 27.024C140.164 26.4867 140.463 25.877 140.649 25.195C140.835 24.4923 140.928 23.7587 140.928 22.994C140.928 22.2087 140.825 21.4543 140.618 20.731C140.432 20.0077 140.133 19.3773 139.719 18.84C139.306 18.282 138.779 17.8377 138.138 17.507C137.518 17.1763 136.774 17.011 135.906 17.011C135.059 17.011 134.336 17.166 133.736 17.476C133.137 17.786 132.641 18.1993 132.248 18.716C131.856 19.2327 131.566 19.8423 131.38 20.545C131.194 21.227 131.101 21.9503 131.101 22.715C131.101 23.5003 131.194 24.2547 131.38 24.978C131.587 25.7013 131.887 26.342 132.279 26.9C132.693 27.458 133.209 27.9023 133.829 28.233C134.47 28.5637 135.224 28.729 136.092 28.729ZM154.802 18.034C154.472 17.848 154.141 17.7033 153.81 17.6C153.48 17.476 153.159 17.414 152.849 17.414C152.436 17.414 152.043 17.5277 151.671 17.755C151.299 17.9823 150.958 18.2923 150.648 18.685C150.338 19.0777 150.059 19.5323 149.811 20.049C149.584 20.5657 149.408 21.103 149.284 21.661V30H147.114V15.74H148.819L149.067 18.871H149.191C149.336 18.3957 149.522 17.941 149.749 17.507C149.997 17.073 150.287 16.6907 150.617 16.36C150.969 16.0293 151.361 15.771 151.795 15.585C152.229 15.3783 152.725 15.275 153.283 15.275C153.676 15.275 154.089 15.3473 154.523 15.492C154.957 15.616 155.267 15.7813 155.453 15.988L154.802 18.034ZM164.278 15.275C166.096 15.275 167.502 15.74 168.494 16.67C169.486 17.5793 169.982 18.871 169.982 20.545C169.982 20.8963 169.961 21.258 169.92 21.63C169.878 21.9813 169.806 22.2397 169.703 22.405H159.256V22.715C159.256 23.5003 159.359 24.2547 159.566 24.978C159.772 25.7013 160.082 26.342 160.496 26.9C160.909 27.458 161.426 27.9023 162.046 28.233C162.686 28.5637 163.441 28.729 164.309 28.729C164.805 28.729 165.29 28.6773 165.766 28.574C166.241 28.45 166.696 28.3053 167.13 28.14C167.564 27.954 167.967 27.7577 168.339 27.551C168.711 27.3443 169.041 27.1377 169.331 26.931L169.703 28.698C169.434 28.8633 169.103 29.0493 168.711 29.256C168.318 29.442 167.884 29.6177 167.409 29.783C166.933 29.9483 166.406 30.0827 165.828 30.186C165.27 30.31 164.681 30.372 164.061 30.372C162.903 30.372 161.88 30.1757 160.992 29.783C160.103 29.3697 159.359 28.822 158.76 28.14C158.16 27.4373 157.706 26.6313 157.396 25.722C157.086 24.8127 156.931 23.862 156.931 22.87C156.931 21.8573 157.086 20.8963 157.396 19.987C157.726 19.057 158.202 18.2407 158.822 17.538C159.442 16.8353 160.206 16.2877 161.116 15.895C162.046 15.4817 163.1 15.275 164.278 15.275ZM164.185 17.011C162.821 17.011 161.756 17.3727 160.992 18.096C160.248 18.7987 159.741 19.6873 159.473 20.762H167.936C167.956 20.6587 167.967 20.5657 167.967 20.483C167.967 20.4003 167.967 20.3073 167.967 20.204C167.967 19.6873 167.863 19.2327 167.657 18.84C167.45 18.4267 167.171 18.0857 166.82 17.817C166.468 17.5483 166.065 17.352 165.611 17.228C165.156 17.0833 164.681 17.011 164.185 17.011Z" fill="#1F1F1F"/>
</svg>
