<svg width="100" height="33" viewBox="0 0 100 33" fill="none" xmlns="http://www.w3.org/2000/svg">
<path d="M8.52239 5.725V0.474998H10.7624V5.725H8.52239ZM3.83239 5.725V0.474998H6.07239V5.725H3.83239ZM8.52239 32.43V27.18H10.7624V32.43H8.52239ZM3.83239 32.43V27.18H6.07239V32.43H3.83239ZM0.612392 29V4.01H6.35239C8.31239 4.01 9.94573 4.20833 11.2524 4.605C12.5824 5.00167 13.5741 5.655 14.2274 6.565C14.9041 7.475 15.2424 8.68833 15.2424 10.205C15.2424 11.185 15.0791 12.06 14.7524 12.83C14.4491 13.5767 13.9824 14.2067 13.3524 14.72C12.7457 15.21 11.9874 15.5483 11.0774 15.735V15.91C12.0107 16.0733 12.8391 16.3767 13.5624 16.82C14.3091 17.2633 14.8924 17.8933 15.3124 18.71C15.7557 19.5267 15.9774 20.5883 15.9774 21.895C15.9774 23.4117 15.6507 24.7067 14.9974 25.78C14.3674 26.83 13.4574 27.635 12.2674 28.195C11.0774 28.7317 9.65406 29 7.99739 29H0.612392ZM6.98239 14.65C8.89573 14.65 10.2024 14.3117 10.9024 13.635C11.6257 12.935 11.9874 11.9083 11.9874 10.555C11.9874 9.17833 11.5441 8.19833 10.6574 7.615C9.79406 7.00833 8.40573 6.705 6.49239 6.705H3.76239V14.65H6.98239ZM3.76239 17.275V26.34H7.40239C9.33906 26.34 10.6924 25.9083 11.4624 25.045C12.2324 24.1817 12.6174 23.05 12.6174 21.65C12.6174 20.7633 12.4424 19.9933 12.0924 19.34C11.7657 18.6867 11.2057 18.185 10.4124 17.835C9.61906 17.4617 8.53406 17.275 7.15739 17.275H3.76239ZM22.4267 29H19.9767V12.9H22.4267V29ZM19.4517 7.02C19.4517 6.55333 19.615 6.13333 19.9417 5.76C20.2917 5.38667 20.7117 5.2 21.2017 5.2C21.6684 5.2 22.0884 5.38667 22.4617 5.76C22.835 6.13333 23.0217 6.55333 23.0217 7.02C23.0217 7.51 22.835 7.93 22.4617 8.28C22.0884 8.60667 21.6684 8.77 21.2017 8.77C20.7117 8.77 20.2917 8.60667 19.9417 8.28C19.615 7.93 19.4517 7.51 19.4517 7.02ZM28.6072 14.545H25.9122V13.25L28.6772 12.9L29.2022 8.035H31.0572V12.9H34.8372V14.545H31.0572V25.71C31.0572 26.4567 31.1622 26.9467 31.3722 27.18C31.6055 27.4133 31.9555 27.53 32.4222 27.53C32.9589 27.53 33.4372 27.4483 33.8572 27.285C34.2772 27.1217 34.6505 26.9233 34.9772 26.69L35.4672 28.545C35.0705 28.7317 34.5455 28.9183 33.8922 29.105C33.2622 29.2917 32.5622 29.385 31.7922 29.385C31.0455 29.385 30.4622 29.28 30.0422 29.07C29.6222 28.86 29.3072 28.58 29.0972 28.23C28.8872 27.88 28.7472 27.495 28.6772 27.075C28.6305 26.6317 28.6072 26.2 28.6072 25.78V14.545ZM40.9439 11.465C40.9439 12.0483 41.0489 12.5383 41.2589 12.935C41.4922 13.3083 41.8422 13.6467 42.3089 13.95C42.7989 14.2533 43.4055 14.545 44.1289 14.825C44.8755 15.0817 45.7622 15.385 46.7889 15.735C47.6522 16.015 48.5039 16.3417 49.3439 16.715C50.1839 17.065 50.9305 17.5083 51.5839 18.045C52.2605 18.5583 52.7972 19.2117 53.1939 20.005C53.5905 20.775 53.7889 21.72 53.7889 22.84C53.7889 24.03 53.5555 25.045 53.0889 25.885C52.6222 26.725 52.0039 27.4133 51.2339 27.95C50.4639 28.4633 49.5772 28.8367 48.5739 29.07C47.5705 29.3033 46.5322 29.42 45.4589 29.42C43.9422 29.42 42.5305 29.2333 41.2239 28.86C39.9172 28.4867 38.7855 28.0317 37.8289 27.495L38.5639 24.94C39.0072 25.2433 39.4505 25.535 39.8939 25.815C40.3372 26.0717 40.8155 26.2933 41.3289 26.48C41.8655 26.6667 42.4489 26.8183 43.0789 26.935C43.7089 27.0517 44.4322 27.11 45.2489 27.11C46.2989 27.11 47.1972 27.0167 47.9439 26.83C48.6905 26.6433 49.2972 26.3867 49.7639 26.06C50.2305 25.71 50.5689 25.3017 50.7789 24.835C50.9889 24.3683 51.0939 23.8667 51.0939 23.33C51.0939 22.5367 50.9072 21.8717 50.5339 21.335C50.1605 20.775 49.6705 20.2967 49.0639 19.9C48.4805 19.5033 47.8272 19.1767 47.1039 18.92C46.4039 18.64 45.7039 18.3833 45.0039 18.15C44.0005 17.8233 43.0905 17.4733 42.2739 17.1C41.4572 16.7267 40.7572 16.2833 40.1739 15.77C39.6139 15.2567 39.1705 14.6617 38.8439 13.985C38.5405 13.3083 38.3889 12.5033 38.3889 11.57C38.3889 10.52 38.5755 9.63333 38.9489 8.91C39.3455 8.16333 39.8705 7.55667 40.5239 7.09C41.2005 6.62333 41.9939 6.285 42.9039 6.075C43.8139 5.84167 44.7939 5.725 45.8439 5.725C47.1039 5.725 48.3172 5.85333 49.4839 6.11C50.6505 6.36667 51.6422 6.68167 52.4589 7.055L51.7239 9.75C51.3505 9.42333 50.9072 9.155 50.3939 8.945C49.9039 8.71167 49.3789 8.53667 48.8189 8.42C48.2822 8.28 47.7455 8.18667 47.2089 8.14C46.6722 8.07 46.1705 8.035 45.7039 8.035C44.2339 8.035 43.0672 8.315 42.2039 8.875C41.3639 9.41167 40.9439 10.275 40.9439 11.465ZM68.3412 29L68.0612 26.13H67.9212C67.6412 26.5733 67.2679 26.9933 66.8012 27.39C66.3346 27.7867 65.8096 28.1367 65.2262 28.44C64.6662 28.7433 64.0479 28.9767 63.3712 29.14C62.7179 29.3267 62.0646 29.42 61.4112 29.42C59.8712 29.42 58.7162 28.9767 57.9462 28.09C57.1762 27.18 56.7912 26.0483 56.7912 24.695C56.7912 23.365 57.1296 22.3033 57.8062 21.51C58.4829 20.7167 59.3112 20.1217 60.2912 19.725C61.2712 19.3283 62.2979 19.0717 63.3712 18.955C64.4679 18.8383 65.4246 18.78 66.2412 18.78H67.8162V18.36C67.8162 17.4733 67.6879 16.7967 67.4312 16.33C67.1979 15.8633 66.8479 15.4667 66.3812 15.14C65.9846 14.8833 65.5529 14.7083 65.0862 14.615C64.6429 14.4983 64.0479 14.44 63.3012 14.44C62.3212 14.44 61.4579 14.5683 60.7112 14.825C59.9646 15.0817 59.2412 15.42 58.5412 15.84L57.9812 13.74C59.5446 12.83 61.4112 12.375 63.5812 12.375C64.4446 12.375 65.2612 12.4567 66.0312 12.62C66.8012 12.76 67.4779 13.0167 68.0612 13.39C68.7379 13.81 69.2746 14.405 69.6712 15.175C70.0679 15.945 70.2662 16.9017 70.2662 18.045V29H68.3412ZM62.1462 27.355C63.1029 27.355 64.1179 27.0517 65.1912 26.445C66.2646 25.8383 67.1396 24.9633 67.8162 23.82V20.565H67.5012C66.5446 20.565 65.5879 20.6 64.6312 20.67C63.6746 20.74 62.7996 20.915 62.0062 21.195C61.2362 21.475 60.6062 21.8833 60.1162 22.42C59.6262 22.9333 59.3812 23.645 59.3812 24.555C59.3812 25.465 59.6262 26.165 60.1162 26.655C60.6296 27.1217 61.3062 27.355 62.1462 27.355ZM76.3929 14.545H73.6979V13.25L76.3929 12.935C76.3929 11.6283 76.4279 10.5083 76.4979 9.575C76.5912 8.64167 76.7079 7.86 76.8479 7.23C76.9879 6.57667 77.1395 6.05167 77.3029 5.655C77.4895 5.235 77.6645 4.89666 77.8279 4.64C78.2712 3.98667 78.8195 3.54333 79.4729 3.31C80.1262 3.05333 80.8029 2.925 81.5029 2.925C81.5962 2.925 81.7595 2.93666 81.9929 2.96C82.2262 2.96 82.4829 2.98333 82.7629 3.03C83.0662 3.05333 83.3695 3.11166 83.6729 3.205C83.9762 3.275 84.2679 3.38 84.5479 3.52L83.9529 5.585C83.8829 5.585 83.7195 5.55 83.4629 5.48C83.2062 5.38666 82.9145 5.29333 82.5879 5.2C82.2845 5.08333 81.9462 4.97833 81.5729 4.885C81.2229 4.79167 80.9079 4.745 80.6279 4.745C80.2779 4.745 79.9862 4.85 79.7529 5.06C79.5195 5.24667 79.3329 5.57333 79.1929 6.04C79.0762 6.48333 78.9829 7.07833 78.9129 7.825C78.8662 8.57167 78.8429 9.49333 78.8429 10.59V12.9H82.6229V14.545H78.8429V29H76.3929V14.545ZM92.9484 12.375C95.0017 12.375 96.5884 12.9 97.7084 13.95C98.8284 14.9767 99.3884 16.435 99.3884 18.325C99.3884 18.7217 99.3651 19.13 99.3184 19.55C99.2717 19.9467 99.1901 20.2383 99.0734 20.425H87.2784V20.775C87.2784 21.6617 87.3951 22.5133 87.6284 23.33C87.8617 24.1467 88.2117 24.87 88.6784 25.5C89.1451 26.13 89.7284 26.6317 90.4284 27.005C91.1517 27.3783 92.0034 27.565 92.9834 27.565C93.5434 27.565 94.0917 27.5067 94.6284 27.39C95.1651 27.25 95.6784 27.0867 96.1684 26.9C96.6584 26.69 97.1134 26.4683 97.5334 26.235C97.9534 26.0017 98.3267 25.7683 98.6534 25.535L99.0734 27.53C98.7701 27.7167 98.3967 27.9267 97.9534 28.16C97.5101 28.37 97.0201 28.5683 96.4834 28.755C95.9467 28.9417 95.3517 29.0933 94.6984 29.21C94.0684 29.35 93.4034 29.42 92.7034 29.42C91.3967 29.42 90.2417 29.1983 89.2384 28.755C88.2351 28.2883 87.3951 27.67 86.7184 26.9C86.0417 26.1067 85.5284 25.1967 85.1784 24.17C84.8284 23.1433 84.6534 22.07 84.6534 20.95C84.6534 19.8067 84.8284 18.7217 85.1784 17.695C85.5517 16.645 86.0884 15.7233 86.7884 14.93C87.4884 14.1367 88.3517 13.5183 89.3784 13.075C90.4284 12.6083 91.6184 12.375 92.9484 12.375ZM92.8434 14.335C91.3034 14.335 90.1017 14.7433 89.2384 15.56C88.3984 16.3533 87.8267 17.3567 87.5234 18.57H97.0784C97.1017 18.4533 97.1134 18.3483 97.1134 18.255C97.1134 18.1617 97.1134 18.0567 97.1134 17.94C97.1134 17.3567 96.9967 16.8433 96.7634 16.4C96.5301 15.9333 96.2151 15.5483 95.8184 15.245C95.4217 14.9417 94.9667 14.72 94.4534 14.58C93.9401 14.4167 93.4034 14.335 92.8434 14.335Z" fill="#F5F5F5"/>
</svg>
