<svg width="26" height="27" viewBox="0 0 26 27" fill="none" xmlns="http://www.w3.org/2000/svg">
<path fill-rule="evenodd" clip-rule="evenodd" d="M16.25 1.125C14.5261 1.125 12.8728 1.83616 11.6538 3.10203C10.4348 4.3679 9.75 6.08479 9.75 7.875V10.125H7.58333C6.98502 10.125 6.5 10.6287 6.5 11.25V15.75C6.5 16.3713 6.98502 16.875 7.58333 16.875H9.75V24.75C9.75 25.3713 10.235 25.875 10.8333 25.875H15.1667C15.765 25.875 16.25 25.3713 16.25 24.75V16.875H18.4167C18.9138 16.875 19.3471 16.5237 19.4677 16.0229L20.551 11.5229C20.6319 11.1868 20.5592 10.8307 20.3539 10.5577C20.1486 10.2846 19.8336 10.125 19.5 10.125H16.25V7.875H19.5C20.0983 7.875 20.5833 7.37132 20.5833 6.75V2.25C20.5833 1.62868 20.0983 1.125 19.5 1.125H16.25ZM13.1859 4.69302C13.9985 3.84911 15.1007 3.375 16.25 3.375H18.4167V5.625H16.25C15.6754 5.625 15.1243 5.86205 14.7179 6.28401C14.3116 6.70597 14.0833 7.27826 14.0833 7.875V11.25C14.0833 11.8713 14.5684 12.375 15.1667 12.375H18.1125L17.5708 14.625H15.1667C14.5684 14.625 14.0833 15.1287 14.0833 15.75V23.625H11.9167V15.75C11.9167 15.1287 11.4316 14.625 10.8333 14.625H8.66667V12.375H10.8333C11.4316 12.375 11.9167 11.8713 11.9167 11.25V7.875C11.9167 6.68153 12.3732 5.53693 13.1859 4.69302Z" fill="#1F1F1F"/>
</svg>
