<svg width="30" height="30" viewBox="0 0 30 30" fill="none" xmlns="http://www.w3.org/2000/svg">
<mask id="path-1-inside-1_195_530" fill="white">
<path fill-rule="evenodd" clip-rule="evenodd" d="M3.1541 15.9775C3.07707 15.8877 3.00416 15.7935 2.91695 15.7135C1.13137 14.0756 0 11.6444 0 8.93031C0 3.99823 3.7362 0 8.34503 0C9.58501 0 10.7618 0.28941 11.8197 0.808553C13.6556 1.70952 16.2473 1.70951 18.0833 0.808552C19.1411 0.28941 20.3179 0 21.5579 0C26.1668 0 29.903 3.99823 29.903 8.93031C29.903 11.5381 28.8584 13.8849 27.1926 15.5176C27.0581 15.6494 26.9562 15.8115 26.8374 15.9576L16.0546 29.2119C15.6611 29.6956 14.9257 29.7052 14.5197 29.2318L3.1541 15.9775Z"/>
</mask>
<path d="M16.0546 29.2119L19.1575 31.7362L19.1575 31.7362L16.0546 29.2119ZM14.5197 29.2318L11.4833 31.8356L11.4833 31.8356L14.5197 29.2318ZM27.1926 15.5176L29.9925 18.3742L27.1926 15.5176ZM26.8374 15.9576L23.7345 13.4333V13.4333L26.8374 15.9576ZM18.0833 0.808552L16.3211 -2.78236L18.0833 0.808552ZM2.91695 15.7135L5.62081 12.7657L2.91695 15.7135ZM5.62081 12.7657C4.66247 11.8867 4 10.5253 4 8.93031H-4C-4 12.7634 -2.39972 16.2646 0.213089 18.6612L5.62081 12.7657ZM4 8.93031C4 5.94766 6.1964 4 8.34503 4V-4C1.276 -4 -4 2.04881 -4 8.93031H4ZM8.34503 4C8.95399 4 9.52976 4.14048 10.0575 4.39947L13.5819 -2.78236C11.9939 -3.56166 10.216 -4 8.34503 -4V4ZM19.8455 4.39946C20.3732 4.14048 20.949 4 21.5579 4V-4C19.6869 -4 17.9091 -3.56166 16.3211 -2.78236L19.8455 4.39946ZM21.5579 4C23.7066 4 25.903 5.94766 25.903 8.93031H33.903C33.903 2.04881 28.627 -4 21.5579 -4V4ZM25.903 8.93031C25.903 10.4624 25.2916 11.7799 24.3927 12.6609L29.9925 18.3742C32.4252 15.9899 33.903 12.6138 33.903 8.93031H25.903ZM23.7345 13.4333L12.9517 26.6876L19.1575 31.7362L29.9403 18.4819L23.7345 13.4333ZM12.9517 26.6876C14.1323 25.2365 16.3385 25.2079 17.5562 26.628L11.4833 31.8356C13.5128 34.2024 17.1899 34.1548 19.1575 31.7362L12.9517 26.6876ZM17.5562 26.628L6.19058 13.3737L0.117619 18.5813L11.4833 31.8356L17.5562 26.628ZM24.3927 12.6609C24.1131 12.9349 23.9136 13.1945 23.8231 13.3137C23.7983 13.3464 23.776 13.3762 23.7604 13.3972C23.7418 13.4221 23.7344 13.4321 23.7246 13.445C23.707 13.4685 23.715 13.4573 23.7345 13.4333L29.9403 18.4819C30.0192 18.3849 30.0845 18.2986 30.1236 18.2465C30.1422 18.2216 30.163 18.1937 30.1727 18.1807C30.1854 18.1637 30.1914 18.1557 30.1952 18.1507C30.2033 18.14 30.1874 18.1615 30.1571 18.1974C30.1258 18.2347 30.0702 18.298 29.9925 18.3742L24.3927 12.6609ZM10.0575 4.39947C13.0049 5.84588 16.898 5.84588 19.8455 4.39946L16.3211 -2.78236C15.5966 -2.42685 14.3063 -2.42685 13.5819 -2.78236L10.0575 4.39947ZM0.213089 18.6612C0.151891 18.6051 0.104653 18.557 0.0728149 18.5233C0.0414265 18.4901 0.0206839 18.4662 0.0150087 18.4597C0.0109366 18.455 0.0112471 18.4552 0.0308111 18.4786C0.0382155 18.4874 0.0518886 18.5037 0.0652043 18.5196C0.0793558 18.5364 0.0973454 18.5576 0.117623 18.5813L6.19058 13.3737C6.1916 13.3749 6.19046 13.3736 6.18554 13.3677C6.17978 13.3609 6.17444 13.3545 6.16282 13.3406C6.14432 13.3185 6.10651 13.2734 6.06368 13.2239C5.97872 13.1257 5.82542 12.9534 5.62081 12.7657L0.213089 18.6612Z" fill="#F1F1F1" mask="url(#path-1-inside-1_195_530)"/>
</svg>
