<svg width="26" height="27" viewBox="0 0 26 27" fill="none" xmlns="http://www.w3.org/2000/svg">
<path fill-rule="evenodd" clip-rule="evenodd" d="M10.5521 8.45844C11.5634 7.91352 12.7144 7.71362 13.8414 7.88716C14.9909 8.06419 16.0552 8.62047 16.877 9.47385C17.6987 10.3272 18.2344 11.4324 18.4049 12.6262C18.572 13.7966 18.3795 14.9918 17.8548 16.042C17.33 17.0922 16.4998 17.9438 15.4821 18.4758C14.4644 19.0077 13.3111 19.1928 12.1863 19.0049C11.0614 18.8169 10.0223 18.2654 9.21666 17.4288C8.41103 16.5922 7.87995 15.5131 7.69895 14.345C7.51794 13.1768 7.69623 11.9792 8.20846 10.9224C8.72069 9.86555 9.54077 9.00336 10.5521 8.45844ZM13.5235 10.1128C12.8473 10.0087 12.1567 10.1286 11.55 10.4556C10.9432 10.7825 10.4511 11.2999 10.1438 11.934C9.83647 12.5681 9.72949 13.2866 9.83809 13.9875C9.9467 14.6884 10.2653 15.3358 10.7487 15.8378C11.2321 16.3398 11.8556 16.6707 12.5305 16.7835C13.2054 16.8962 13.8974 16.7851 14.508 16.466C15.1186 16.1468 15.6168 15.6359 15.9316 15.0057C16.2464 14.3756 16.3619 13.6585 16.2617 12.9563C16.1594 12.24 15.838 11.5769 15.3449 11.0648C14.8519 10.5528 14.2133 10.219 13.5235 10.1128Z" fill="#1F1F1F"/>
<path d="M18.9583 6.1875C18.36 6.1875 17.875 6.69118 17.875 7.3125C17.875 7.93382 18.36 8.4375 18.9583 8.4375H18.9692C19.5675 8.4375 20.0525 7.93382 20.0525 7.3125C20.0525 6.69118 19.5675 6.1875 18.9692 6.1875H18.9583Z" fill="#1F1F1F"/>
<path fill-rule="evenodd" clip-rule="evenodd" d="M1.08333 7.875C1.08333 4.14708 3.99348 1.125 7.58333 1.125H18.4167C22.0065 1.125 24.9167 4.14708 24.9167 7.875V19.125C24.9167 22.8529 22.0065 25.875 18.4167 25.875H7.58333C3.99348 25.875 1.08333 22.8529 1.08333 19.125V7.875ZM7.58333 3.375C5.1901 3.375 3.25 5.38972 3.25 7.875V19.125C3.25 21.6103 5.1901 23.625 7.58333 23.625H18.4167C20.8099 23.625 22.75 21.6103 22.75 19.125V7.875C22.75 5.38972 20.8099 3.375 18.4167 3.375H7.58333Z" fill="#1F1F1F"/>
</svg>
