<svg width="172" height="155" viewBox="0 0 172 155" fill="none" xmlns="http://www.w3.org/2000/svg">
<g opacity="0.5">
<path d="M172 84.0586L-0.999998 84.0586" stroke="#E3C08D"/>
<path d="M172 76.5083H-0.999998" stroke="#E3C08D"/>
<path d="M172 68.9562H-0.999998" stroke="#E3C08D"/>
<path d="M172 61.4059L-0.999998 61.4059" stroke="#E3C08D"/>
<path d="M172 53.8556L-0.999998 53.8556" stroke="#E3C08D"/>
<path d="M172 46.3053L-0.999998 46.3053" stroke="#E3C08D"/>
<path d="M172 38.7532L-0.999998 38.7532" stroke="#E3C08D"/>
<path d="M172 31.2029L-0.999998 31.2029" stroke="#E3C08D"/>
<path d="M172 23.6526L-0.999998 23.6526" stroke="#E3C08D"/>
<path d="M172 16.1006L-0.999998 16.1006" stroke="#E3C08D"/>
<path d="M172 8.55028L-0.999998 8.55028" stroke="#E3C08D"/>
<path d="M172 0.999985L-0.999998 0.999985" stroke="#E3C08D"/>
<path d="M7.30469 154.533L7.30469 84.0589" stroke="#E3C08D"/>
<path d="M15.6094 154.533L15.6094 84.0589" stroke="#E3C08D"/>
<path d="M23.9141 154.533L23.9141 84.0589" stroke="#E3C08D"/>
<path d="M32.2148 154.533L32.2148 84.0589" stroke="#E3C08D"/>
<path d="M40.5195 154.533L40.5195 84.0589" stroke="#E3C08D"/>
<path d="M48.8242 154.533L48.8242 84.0589" stroke="#E3C08D"/>
<path d="M57.1289 154.533L57.1289 84.0589" stroke="#E3C08D"/>
<path d="M65.4336 154.533L65.4336 84.0589" stroke="#E3C08D"/>
<path d="M73.7344 154.533L73.7344 84.0589" stroke="#E3C08D"/>
<path d="M82.0391 154.533L82.0391 84.0589" stroke="#E3C08D"/>
<path d="M90.3438 154.533L90.3438 84.0589" stroke="#E3C08D"/>
</g>
</svg>
