<svg width="128" height="42" viewBox="0 0 128 42" fill="none" xmlns="http://www.w3.org/2000/svg">
<path d="M10.535 7.075V0.324997H13.415V7.075H10.535ZM4.505 7.075V0.324997H7.385V7.075H4.505ZM10.535 41.41V34.66H13.415V41.41H10.535ZM4.505 41.41V34.66H7.385V41.41H4.505ZM0.365 37V4.87H7.745C10.265 4.87 12.365 5.125 14.045 5.635C15.755 6.145 17.03 6.985 17.87 8.155C18.74 9.325 19.175 10.885 19.175 12.835C19.175 14.095 18.965 15.22 18.545 16.21C18.155 17.17 17.555 17.98 16.745 18.64C15.965 19.27 14.99 19.705 13.82 19.945V20.17C15.02 20.38 16.085 20.77 17.015 21.34C17.975 21.91 18.725 22.72 19.265 23.77C19.835 24.82 20.12 26.185 20.12 27.865C20.12 29.815 19.7 31.48 18.86 32.86C18.05 34.21 16.88 35.245 15.35 35.965C13.82 36.655 11.99 37 9.86 37H0.365ZM8.555 18.55C11.015 18.55 12.695 18.115 13.595 17.245C14.525 16.345 14.99 15.025 14.99 13.285C14.99 11.515 14.42 10.255 13.28 9.505C12.17 8.725 10.385 8.335 7.925 8.335H4.415V18.55H8.555ZM4.415 21.925V33.58H9.095C11.585 33.58 13.325 33.025 14.315 31.915C15.305 30.805 15.8 29.35 15.8 27.55C15.8 26.41 15.575 25.42 15.125 24.58C14.705 23.74 13.985 23.095 12.965 22.645C11.945 22.165 10.55 21.925 8.78 21.925H4.415ZM28.412 37H25.262V16.3H28.412V37ZM24.587 8.74C24.587 8.14 24.797 7.6 25.217 7.12C25.667 6.64 26.207 6.4 26.837 6.4C27.437 6.4 27.977 6.64 28.457 7.12C28.937 7.6 29.177 8.14 29.177 8.74C29.177 9.37 28.937 9.91 28.457 10.36C27.977 10.78 27.437 10.99 26.837 10.99C26.207 10.99 25.667 10.78 25.217 10.36C24.797 9.91 24.587 9.37 24.587 8.74ZM36.3583 18.415H32.8933V16.75L36.4483 16.3L37.1233 10.045H39.5083V16.3H44.3683V18.415H39.5083V32.77C39.5083 33.73 39.6433 34.36 39.9133 34.66C40.2133 34.96 40.6633 35.11 41.2633 35.11C41.9533 35.11 42.5683 35.005 43.1083 34.795C43.6483 34.585 44.1283 34.33 44.5483 34.03L45.1783 36.415C44.6683 36.655 43.9933 36.895 43.1533 37.135C42.3433 37.375 41.4433 37.495 40.4533 37.495C39.4933 37.495 38.7433 37.36 38.2033 37.09C37.6633 36.82 37.2583 36.46 36.9883 36.01C36.7183 35.56 36.5383 35.065 36.4483 34.525C36.3883 33.955 36.3583 33.4 36.3583 32.86V18.415ZM52.2198 14.455C52.2198 15.205 52.3548 15.835 52.6248 16.345C52.9248 16.825 53.3748 17.26 53.9748 17.65C54.6048 18.04 55.3848 18.415 56.3148 18.775C57.2748 19.105 58.4148 19.495 59.7348 19.945C60.8448 20.305 61.9398 20.725 63.0198 21.205C64.0998 21.655 65.0598 22.225 65.8998 22.915C66.7698 23.575 67.4598 24.415 67.9698 25.435C68.4798 26.425 68.7348 27.64 68.7348 29.08C68.7348 30.61 68.4348 31.915 67.8348 32.995C67.2348 34.075 66.4398 34.96 65.4498 35.65C64.4598 36.31 63.3198 36.79 62.0298 37.09C60.7398 37.39 59.4048 37.54 58.0248 37.54C56.0748 37.54 54.2598 37.3 52.5798 36.82C50.8998 36.34 49.4448 35.755 48.2148 35.065L49.1598 31.78C49.7298 32.17 50.2998 32.545 50.8698 32.905C51.4398 33.235 52.0548 33.52 52.7148 33.76C53.4048 34 54.1548 34.195 54.9648 34.345C55.7748 34.495 56.7048 34.57 57.7548 34.57C59.1048 34.57 60.2598 34.45 61.2198 34.21C62.1798 33.97 62.9598 33.64 63.5598 33.22C64.1598 32.77 64.5948 32.245 64.8648 31.645C65.1348 31.045 65.2698 30.4 65.2698 29.71C65.2698 28.69 65.0298 27.835 64.5498 27.145C64.0698 26.425 63.4398 25.81 62.6598 25.3C61.9098 24.79 61.0698 24.37 60.1398 24.04C59.2398 23.68 58.3398 23.35 57.4398 23.05C56.1498 22.63 54.9798 22.18 53.9298 21.7C52.8798 21.22 51.9798 20.65 51.2298 19.99C50.5098 19.33 49.9398 18.565 49.5198 17.695C49.1298 16.825 48.9348 15.79 48.9348 14.59C48.9348 13.24 49.1748 12.1 49.6548 11.17C50.1648 10.21 50.8398 9.43 51.6798 8.83C52.5498 8.23 53.5698 7.795 54.7398 7.525C55.9098 7.225 57.1698 7.075 58.5198 7.075C60.1398 7.075 61.6998 7.24 63.1998 7.57C64.6998 7.9 65.9748 8.305 67.0248 8.785L66.0798 12.25C65.5998 11.83 65.0298 11.485 64.3698 11.215C63.7398 10.915 63.0648 10.69 62.3448 10.54C61.6548 10.36 60.9648 10.24 60.2748 10.18C59.5848 10.09 58.9398 10.045 58.3398 10.045C56.4498 10.045 54.9498 10.405 53.8398 11.125C52.7598 11.815 52.2198 12.925 52.2198 14.455ZM87.4449 37L87.0849 33.31H86.9049C86.5449 33.88 86.0649 34.42 85.4649 34.93C84.8649 35.44 84.1899 35.89 83.4399 36.28C82.7199 36.67 81.9249 36.97 81.0549 37.18C80.2149 37.42 79.3749 37.54 78.5349 37.54C76.5549 37.54 75.0699 36.97 74.0799 35.83C73.0899 34.66 72.5949 33.205 72.5949 31.465C72.5949 29.755 73.0299 28.39 73.8999 27.37C74.7699 26.35 75.8349 25.585 77.0949 25.075C78.3549 24.565 79.6749 24.235 81.0549 24.085C82.4649 23.935 83.6949 23.86 84.7449 23.86H86.7699V23.32C86.7699 22.18 86.6049 21.31 86.2749 20.71C85.9749 20.11 85.5249 19.6 84.9249 19.18C84.4149 18.85 83.8599 18.625 83.2599 18.505C82.6899 18.355 81.9249 18.28 80.9649 18.28C79.7049 18.28 78.5949 18.445 77.6349 18.775C76.6749 19.105 75.7449 19.54 74.8449 20.08L74.1249 17.38C76.1349 16.21 78.5349 15.625 81.3249 15.625C82.4349 15.625 83.4849 15.73 84.4749 15.94C85.4649 16.12 86.3349 16.45 87.0849 16.93C87.9549 17.47 88.6449 18.235 89.1549 19.225C89.6649 20.215 89.9199 21.445 89.9199 22.915V37H87.4449ZM79.4799 34.885C80.7099 34.885 82.0149 34.495 83.3949 33.715C84.7749 32.935 85.8999 31.81 86.7699 30.34V26.155H86.3649C85.1349 26.155 83.9049 26.2 82.6749 26.29C81.4449 26.38 80.3199 26.605 79.2999 26.965C78.3099 27.325 77.4999 27.85 76.8699 28.54C76.2399 29.2 75.9249 30.115 75.9249 31.285C75.9249 32.455 76.2399 33.355 76.8699 33.985C77.5299 34.585 78.3999 34.885 79.4799 34.885ZM97.797 18.415H94.332V16.75L97.797 16.345C97.797 14.665 97.842 13.225 97.932 12.025C98.052 10.825 98.202 9.82 98.382 9.01C98.562 8.17 98.757 7.495 98.967 6.985C99.207 6.445 99.432 6.01 99.642 5.68C100.212 4.84 100.917 4.27 101.757 3.97C102.597 3.64 103.467 3.475 104.367 3.475C104.487 3.475 104.697 3.49 104.997 3.52C105.297 3.52 105.627 3.55 105.987 3.61C106.377 3.64 106.767 3.715 107.157 3.835C107.547 3.925 107.922 4.06 108.282 4.24L107.517 6.895C107.427 6.895 107.217 6.85 106.887 6.76C106.557 6.64 106.182 6.52 105.762 6.4C105.372 6.25 104.937 6.115 104.457 5.995C104.007 5.875 103.602 5.815 103.242 5.815C102.792 5.815 102.417 5.95 102.117 6.22C101.817 6.46 101.577 6.88 101.397 7.48C101.247 8.05 101.127 8.815 101.037 9.775C100.977 10.735 100.947 11.92 100.947 13.33V16.3H105.807V18.415H100.947V37H97.797V18.415ZM119.083 15.625C121.723 15.625 123.763 16.3 125.203 17.65C126.643 18.97 127.363 20.845 127.363 23.275C127.363 23.785 127.333 24.31 127.273 24.85C127.213 25.36 127.108 25.735 126.958 25.975H111.793V26.425C111.793 27.565 111.943 28.66 112.243 29.71C112.543 30.76 112.993 31.69 113.593 32.5C114.193 33.31 114.943 33.955 115.843 34.435C116.773 34.915 117.868 35.155 119.128 35.155C119.848 35.155 120.553 35.08 121.243 34.93C121.933 34.75 122.593 34.54 123.223 34.3C123.853 34.03 124.438 33.745 124.978 33.445C125.518 33.145 125.998 32.845 126.418 32.545L126.958 35.11C126.568 35.35 126.088 35.62 125.518 35.92C124.948 36.19 124.318 36.445 123.628 36.685C122.938 36.925 122.173 37.12 121.333 37.27C120.523 37.45 119.668 37.54 118.768 37.54C117.088 37.54 115.603 37.255 114.313 36.685C113.023 36.085 111.943 35.29 111.073 34.3C110.203 33.28 109.543 32.11 109.093 30.79C108.643 29.47 108.418 28.09 108.418 26.65C108.418 25.18 108.643 23.785 109.093 22.465C109.573 21.115 110.263 19.93 111.163 18.91C112.063 17.89 113.173 17.095 114.493 16.525C115.843 15.925 117.373 15.625 119.083 15.625ZM118.948 18.145C116.968 18.145 115.423 18.67 114.313 19.72C113.233 20.74 112.498 22.03 112.108 23.59H124.393C124.423 23.44 124.438 23.305 124.438 23.185C124.438 23.065 124.438 22.93 124.438 22.78C124.438 22.03 124.288 21.37 123.988 20.8C123.688 20.2 123.283 19.705 122.773 19.315C122.263 18.925 121.678 18.64 121.018 18.46C120.358 18.25 119.668 18.145 118.948 18.145Z" fill="white"/>
</svg>
