<svg width="177" height="38" viewBox="0 0 177 38" fill="none" xmlns="http://www.w3.org/2000/svg">
<path d="M10.013 5.385V0.734998H11.997V5.385H10.013ZM5.859 5.385V0.734998H7.843V5.385H5.859ZM10.013 29.038V24.388H11.997V29.038H10.013ZM5.859 29.038V24.388H7.843V29.038H5.859ZM3.007 26V3.866H8.091C9.827 3.866 11.2737 4.04167 12.431 4.393C13.609 4.74433 14.4873 5.323 15.066 6.129C15.6653 6.935 15.965 8.00967 15.965 9.353C15.965 10.221 15.8203 10.996 15.531 11.678C15.2623 12.3393 14.849 12.8973 14.291 13.352C13.7537 13.786 13.082 14.0857 12.276 14.251V14.406C13.1027 14.5507 13.8363 14.8193 14.477 15.212C15.1383 15.6047 15.655 16.1627 16.027 16.886C16.4197 17.6093 16.616 18.5497 16.616 19.707C16.616 21.0503 16.3267 22.1973 15.748 23.148C15.19 24.078 14.384 24.791 13.33 25.287C12.276 25.7623 11.0153 26 9.548 26H3.007ZM8.649 13.29C10.3437 13.29 11.501 12.9903 12.121 12.391C12.7617 11.771 13.082 10.8617 13.082 9.663C13.082 8.44367 12.6893 7.57567 11.904 7.059C11.1393 6.52167 9.90967 6.253 8.215 6.253H5.797V13.29H8.649ZM5.797 15.615V23.644H9.021C10.7363 23.644 11.935 23.2617 12.617 22.497C13.299 21.7323 13.64 20.73 13.64 19.49C13.64 18.7047 13.485 18.0227 13.175 17.444C12.8857 16.8653 12.3897 16.421 11.687 16.111C10.9843 15.7803 10.0233 15.615 8.804 15.615H5.797ZM22.3282 26H20.1582V11.74H22.3282V26ZM19.6932 6.532C19.6932 6.11867 19.8379 5.74667 20.1272 5.416C20.4372 5.08533 20.8092 4.92 21.2432 4.92C21.6566 4.92 22.0286 5.08533 22.3592 5.416C22.6899 5.74667 22.8552 6.11867 22.8552 6.532C22.8552 6.966 22.6899 7.338 22.3592 7.648C22.0286 7.93733 21.6566 8.082 21.2432 8.082C20.8092 8.082 20.4372 7.93733 20.1272 7.648C19.8379 7.338 19.6932 6.966 19.6932 6.532ZM27.8024 13.197H25.4154V12.05L27.8644 11.74L28.3294 7.431H29.9724V11.74H33.3204V13.197H29.9724V23.086C29.9724 23.7473 30.0654 24.1813 30.2514 24.388C30.4581 24.5947 30.7681 24.698 31.1814 24.698C31.6567 24.698 32.0804 24.6257 32.4524 24.481C32.8244 24.3363 33.1551 24.1607 33.4444 23.954L33.8784 25.597C33.5271 25.7623 33.0621 25.9277 32.4834 26.093C31.9254 26.2583 31.3054 26.341 30.6234 26.341C29.9621 26.341 29.4454 26.248 29.0734 26.062C28.7014 25.876 28.4224 25.628 28.2364 25.318C28.0504 25.008 27.9264 24.667 27.8644 24.295C27.8231 23.9023 27.8024 23.52 27.8024 23.148V13.197ZM38.7292 10.469C38.7292 10.9857 38.8222 11.4197 39.0082 11.771C39.2148 12.1017 39.5248 12.4013 39.9382 12.67C40.3722 12.9387 40.9095 13.197 41.5502 13.445C42.2115 13.6723 42.9968 13.941 43.9062 14.251C44.6708 14.499 45.4252 14.7883 46.1692 15.119C46.9132 15.429 47.5745 15.8217 48.1532 16.297C48.7525 16.7517 49.2278 17.3303 49.5792 18.033C49.9305 18.715 50.1062 19.552 50.1062 20.544C50.1062 21.598 49.8995 22.497 49.4862 23.241C49.0728 23.985 48.5252 24.5947 47.8432 25.07C47.1612 25.5247 46.3758 25.8553 45.4872 26.062C44.5985 26.2687 43.6788 26.372 42.7282 26.372C41.3848 26.372 40.1345 26.2067 38.9772 25.876C37.8198 25.5453 36.8175 25.1423 35.9702 24.667L36.6212 22.404C37.0138 22.6727 37.4065 22.931 37.7992 23.179C38.1918 23.4063 38.6155 23.6027 39.0702 23.768C39.5455 23.9333 40.0622 24.0677 40.6202 24.171C41.1782 24.2743 41.8188 24.326 42.5422 24.326C43.4722 24.326 44.2678 24.2433 44.9292 24.078C45.5905 23.9127 46.1278 23.6853 46.5412 23.396C46.9545 23.086 47.2542 22.7243 47.4402 22.311C47.6262 21.8977 47.7192 21.4533 47.7192 20.978C47.7192 20.2753 47.5538 19.6863 47.2232 19.211C46.8925 18.715 46.4585 18.2913 45.9212 17.94C45.4045 17.5887 44.8258 17.2993 44.1852 17.072C43.5652 16.824 42.9452 16.5967 42.3252 16.39C41.4365 16.1007 40.6305 15.7907 39.9072 15.46C39.1838 15.1293 38.5638 14.7367 38.0472 14.282C37.5512 13.8273 37.1585 13.3003 36.8692 12.701C36.6005 12.1017 36.4662 11.3887 36.4662 10.562C36.4662 9.632 36.6315 8.84667 36.9622 8.206C37.3135 7.54467 37.7785 7.00733 38.3572 6.594C38.9565 6.18067 39.6592 5.881 40.4652 5.695C41.2712 5.48833 42.1392 5.385 43.0692 5.385C44.1852 5.385 45.2598 5.49867 46.2932 5.726C47.3265 5.95333 48.2048 6.23233 48.9282 6.563L48.2772 8.95C47.9465 8.66067 47.5538 8.423 47.0992 8.237C46.6652 8.03033 46.2002 7.87533 45.7042 7.772C45.2288 7.648 44.7535 7.56533 44.2782 7.524C43.8028 7.462 43.3585 7.431 42.9452 7.431C41.6432 7.431 40.6098 7.679 39.8452 8.175C39.1012 8.65033 38.7292 9.415 38.7292 10.469ZM62.9954 26L62.7474 23.458H62.6234C62.3754 23.8507 62.0447 24.2227 61.6314 24.574C61.2181 24.9253 60.7531 25.2353 60.2364 25.504C59.7404 25.7727 59.1927 25.9793 58.5934 26.124C58.0147 26.2893 57.4361 26.372 56.8574 26.372C55.4934 26.372 54.4704 25.9793 53.7884 25.194C53.1064 24.388 52.7654 23.3857 52.7654 22.187C52.7654 21.009 53.0651 20.0687 53.6644 19.366C54.2637 18.6633 54.9974 18.1363 55.8654 17.785C56.7334 17.4337 57.6427 17.2063 58.5934 17.103C59.5647 16.9997 60.4121 16.948 61.1354 16.948H62.5304V16.576C62.5304 15.7907 62.4167 15.1913 62.1894 14.778C61.9827 14.3647 61.6727 14.0133 61.2594 13.724C60.9081 13.4967 60.5257 13.3417 60.1124 13.259C59.7197 13.1557 59.1927 13.104 58.5314 13.104C57.6634 13.104 56.8987 13.2177 56.2374 13.445C55.5761 13.6723 54.9354 13.972 54.3154 14.344L53.8194 12.484C55.2041 11.678 56.8574 11.275 58.7794 11.275C59.5441 11.275 60.2674 11.3473 60.9494 11.492C61.6314 11.616 62.2307 11.8433 62.7474 12.174C63.3467 12.546 63.8221 13.073 64.1734 13.755C64.5247 14.437 64.7004 15.2843 64.7004 16.297V26H62.9954ZM57.5084 24.543C58.3557 24.543 59.2547 24.2743 60.2054 23.737C61.1561 23.1997 61.9311 22.4247 62.5304 21.412V18.529H62.2514C61.4041 18.529 60.5567 18.56 59.7094 18.622C58.8621 18.684 58.0871 18.839 57.3844 19.087C56.7024 19.335 56.1444 19.6967 55.7104 20.172C55.2764 20.6267 55.0594 21.257 55.0594 22.063C55.0594 22.869 55.2764 23.489 55.7104 23.923C56.1651 24.3363 56.7644 24.543 57.5084 24.543ZM70.1268 13.197H67.7398V12.05L70.1268 11.771C70.1268 10.6137 70.1578 9.62167 70.2198 8.795C70.3025 7.96833 70.4058 7.276 70.5298 6.718C70.6538 6.13933 70.7882 5.67433 70.9328 5.323C71.0982 4.951 71.2532 4.65133 71.3978 4.424C71.7905 3.84533 72.2762 3.45267 72.8548 3.246C73.4335 3.01867 74.0328 2.905 74.6528 2.905C74.7355 2.905 74.8802 2.91533 75.0868 2.936C75.2935 2.936 75.5208 2.95667 75.7688 2.998C76.0375 3.01867 76.3062 3.07033 76.5748 3.153C76.8435 3.215 77.1018 3.308 77.3498 3.432L76.8228 5.261C76.7608 5.261 76.6162 5.23 76.3888 5.168C76.1615 5.08533 75.9032 5.00267 75.6138 4.92C75.3452 4.81667 75.0455 4.72367 74.7148 4.641C74.4048 4.55833 74.1258 4.517 73.8778 4.517C73.5678 4.517 73.3095 4.61 73.1028 4.796C72.8962 4.96133 72.7308 5.25067 72.6068 5.664C72.5035 6.05667 72.4208 6.58367 72.3588 7.245C72.3175 7.90633 72.2968 8.72267 72.2968 9.694V11.74H75.6448V13.197H72.2968V26H70.1268V13.197ZM84.7903 11.275C86.609 11.275 88.0143 11.74 89.0063 12.67C89.9983 13.5793 90.4943 14.871 90.4943 16.545C90.4943 16.8963 90.4737 17.258 90.4323 17.63C90.391 17.9813 90.3187 18.2397 90.2153 18.405H79.7683V18.715C79.7683 19.5003 79.8717 20.2547 80.0783 20.978C80.285 21.7013 80.595 22.342 81.0083 22.9C81.4217 23.458 81.9383 23.9023 82.5583 24.233C83.199 24.5637 83.9533 24.729 84.8213 24.729C85.3173 24.729 85.803 24.6773 86.2783 24.574C86.7537 24.45 87.2083 24.3053 87.6423 24.14C88.0763 23.954 88.4793 23.7577 88.8513 23.551C89.2233 23.3443 89.554 23.1377 89.8433 22.931L90.2153 24.698C89.9467 24.8633 89.616 25.0493 89.2233 25.256C88.8307 25.442 88.3967 25.6177 87.9213 25.783C87.446 25.9483 86.919 26.0827 86.3403 26.186C85.7823 26.31 85.1933 26.372 84.5733 26.372C83.416 26.372 82.393 26.1757 81.5043 25.783C80.6157 25.3697 79.8717 24.822 79.2723 24.14C78.673 23.4373 78.2183 22.6313 77.9083 21.722C77.5983 20.8127 77.4433 19.862 77.4433 18.87C77.4433 17.8573 77.5983 16.8963 77.9083 15.987C78.239 15.057 78.7143 14.2407 79.3343 13.538C79.9543 12.8353 80.719 12.2877 81.6283 11.895C82.5583 11.4817 83.6123 11.275 84.7903 11.275ZM84.6973 13.011C83.3333 13.011 82.269 13.3727 81.5043 14.096C80.7603 14.7987 80.254 15.6873 79.9853 16.762H88.4483C88.469 16.6587 88.4793 16.5657 88.4793 16.483C88.4793 16.4003 88.4793 16.3073 88.4793 16.204C88.4793 15.6873 88.376 15.2327 88.1693 14.84C87.9627 14.4267 87.6837 14.0857 87.3323 13.817C86.981 13.5483 86.578 13.352 86.1233 13.228C85.6687 13.0833 85.1933 13.011 84.6973 13.011ZM94.202 24.915C94.202 24.5223 94.3363 24.1813 94.605 23.892C94.8736 23.582 95.2146 23.427 95.628 23.427C96.0206 23.427 96.3616 23.582 96.651 23.892C96.961 24.1813 97.116 24.5223 97.116 24.915C97.116 25.3077 96.961 25.6487 96.651 25.938C96.3616 26.2067 96.0206 26.341 95.628 26.341C95.2146 26.341 94.8736 26.2067 94.605 25.938C94.3363 25.6487 94.202 25.3077 94.202 24.915ZM103.575 10.469C103.575 10.9857 103.668 11.4197 103.854 11.771C104.061 12.1017 104.371 12.4013 104.784 12.67C105.218 12.9387 105.755 13.197 106.396 13.445C107.057 13.6723 107.843 13.941 108.752 14.251C109.517 14.499 110.271 14.7883 111.015 15.119C111.759 15.429 112.42 15.8217 112.999 16.297C113.598 16.7517 114.074 17.3303 114.425 18.033C114.776 18.715 114.952 19.552 114.952 20.544C114.952 21.598 114.745 22.497 114.332 23.241C113.919 23.985 113.371 24.5947 112.689 25.07C112.007 25.5247 111.222 25.8553 110.333 26.062C109.444 26.2687 108.525 26.372 107.574 26.372C106.231 26.372 104.98 26.2067 103.823 25.876C102.666 25.5453 101.663 25.1423 100.816 24.667L101.467 22.404C101.86 22.6727 102.252 22.931 102.645 23.179C103.038 23.4063 103.461 23.6027 103.916 23.768C104.391 23.9333 104.908 24.0677 105.466 24.171C106.024 24.2743 106.665 24.326 107.388 24.326C108.318 24.326 109.114 24.2433 109.775 24.078C110.436 23.9127 110.974 23.6853 111.387 23.396C111.8 23.086 112.1 22.7243 112.286 22.311C112.472 21.8977 112.565 21.4533 112.565 20.978C112.565 20.2753 112.4 19.6863 112.069 19.211C111.738 18.715 111.304 18.2913 110.767 17.94C110.25 17.5887 109.672 17.2993 109.031 17.072C108.411 16.824 107.791 16.5967 107.171 16.39C106.282 16.1007 105.476 15.7907 104.753 15.46C104.03 15.1293 103.41 14.7367 102.893 14.282C102.397 13.8273 102.004 13.3003 101.715 12.701C101.446 12.1017 101.312 11.3887 101.312 10.562C101.312 9.632 101.477 8.84667 101.808 8.206C102.159 7.54467 102.624 7.00733 103.203 6.594C103.802 6.18067 104.505 5.881 105.311 5.695C106.117 5.48833 106.985 5.385 107.915 5.385C109.031 5.385 110.106 5.49867 111.139 5.726C112.172 5.95333 113.051 6.23233 113.774 6.563L113.123 8.95C112.792 8.66067 112.4 8.423 111.945 8.237C111.511 8.03033 111.046 7.87533 110.55 7.772C110.075 7.648 109.599 7.56533 109.124 7.524C108.649 7.462 108.204 7.431 107.791 7.431C106.489 7.431 105.456 7.679 104.691 8.175C103.947 8.65033 103.575 9.415 103.575 10.469ZM119.137 13.197H116.75V12.05L119.199 11.74L119.664 7.431H121.307V11.74H124.655V13.197H121.307V23.086C121.307 23.7473 121.4 24.1813 121.586 24.388C121.793 24.5947 122.103 24.698 122.516 24.698C122.992 24.698 123.415 24.6257 123.787 24.481C124.159 24.3363 124.49 24.1607 124.779 23.954L125.213 25.597C124.862 25.7623 124.397 25.9277 123.818 26.093C123.26 26.2583 122.64 26.341 121.958 26.341C121.297 26.341 120.78 26.248 120.408 26.062C120.036 25.876 119.757 25.628 119.571 25.318C119.385 25.008 119.261 24.667 119.199 24.295C119.158 23.9023 119.137 23.52 119.137 23.148V13.197ZM134.466 11.275C135.727 11.275 136.812 11.492 137.721 11.926C138.63 12.3393 139.374 12.9077 139.953 13.631C140.552 14.3337 140.986 15.15 141.255 16.08C141.544 16.9893 141.689 17.9503 141.689 18.963C141.689 19.9757 141.544 20.9367 141.255 21.846C140.986 22.7347 140.563 23.52 139.984 24.202C139.405 24.8633 138.661 25.3903 137.752 25.783C136.863 26.1757 135.809 26.372 134.59 26.372C133.329 26.372 132.234 26.1653 131.304 25.752C130.395 25.3387 129.64 24.791 129.041 24.109C128.442 23.4063 127.997 22.6003 127.708 21.691C127.419 20.7817 127.274 19.8207 127.274 18.808C127.274 17.7953 127.419 16.8343 127.708 15.925C127.997 15.0157 128.431 14.22 129.01 13.538C129.609 12.8353 130.364 12.2877 131.273 11.895C132.182 11.4817 133.247 11.275 134.466 11.275ZM134.559 24.729C135.386 24.729 136.099 24.574 136.698 24.264C137.318 23.954 137.824 23.5407 138.217 23.024C138.63 22.4867 138.93 21.877 139.116 21.195C139.302 20.4923 139.395 19.7587 139.395 18.994C139.395 18.2087 139.292 17.4543 139.085 16.731C138.899 16.0077 138.599 15.3773 138.186 14.84C137.773 14.282 137.246 13.8377 136.605 13.507C135.985 13.1763 135.241 13.011 134.373 13.011C133.526 13.011 132.802 13.166 132.203 13.476C131.604 13.786 131.108 14.1993 130.715 14.716C130.322 15.2327 130.033 15.8423 129.847 16.545C129.661 17.227 129.568 17.9503 129.568 18.715C129.568 19.5003 129.661 20.2547 129.847 20.978C130.054 21.7013 130.353 22.342 130.746 22.9C131.159 23.458 131.676 23.9023 132.296 24.233C132.937 24.5637 133.691 24.729 134.559 24.729ZM153.269 14.034C152.938 13.848 152.608 13.7033 152.277 13.6C151.946 13.476 151.626 13.414 151.316 13.414C150.903 13.414 150.51 13.5277 150.138 13.755C149.766 13.9823 149.425 14.2923 149.115 14.685C148.805 15.0777 148.526 15.5323 148.278 16.049C148.051 16.5657 147.875 17.103 147.751 17.661V26H145.581V11.74H147.286L147.534 14.871H147.658C147.803 14.3957 147.989 13.941 148.216 13.507C148.464 13.073 148.753 12.6907 149.084 12.36C149.435 12.0293 149.828 11.771 150.262 11.585C150.696 11.3783 151.192 11.275 151.75 11.275C152.143 11.275 152.556 11.3473 152.99 11.492C153.424 11.616 153.734 11.7813 153.92 11.988L153.269 14.034ZM162.744 11.275C164.563 11.275 165.968 11.74 166.96 12.67C167.952 13.5793 168.448 14.871 168.448 16.545C168.448 16.8963 168.428 17.258 168.386 17.63C168.345 17.9813 168.273 18.2397 168.169 18.405H157.722V18.715C157.722 19.5003 157.826 20.2547 158.032 20.978C158.239 21.7013 158.549 22.342 158.962 22.9C159.376 23.458 159.892 23.9023 160.512 24.233C161.153 24.5637 161.907 24.729 162.775 24.729C163.271 24.729 163.757 24.6773 164.232 24.574C164.708 24.45 165.162 24.3053 165.596 24.14C166.03 23.954 166.433 23.7577 166.805 23.551C167.177 23.3443 167.508 23.1377 167.797 22.931L168.169 24.698C167.901 24.8633 167.57 25.0493 167.177 25.256C166.785 25.442 166.351 25.6177 165.875 25.783C165.4 25.9483 164.873 26.0827 164.294 26.186C163.736 26.31 163.147 26.372 162.527 26.372C161.37 26.372 160.347 26.1757 159.458 25.783C158.57 25.3697 157.826 24.822 157.226 24.14C156.627 23.4373 156.172 22.6313 155.862 21.722C155.552 20.8127 155.397 19.862 155.397 18.87C155.397 17.8573 155.552 16.8963 155.862 15.987C156.193 15.057 156.668 14.2407 157.288 13.538C157.908 12.8353 158.673 12.2877 159.582 11.895C160.512 11.4817 161.566 11.275 162.744 11.275ZM162.651 13.011C161.287 13.011 160.223 13.3727 159.458 14.096C158.714 14.7987 158.208 15.6873 157.939 16.762H166.402C166.423 16.6587 166.433 16.5657 166.433 16.483C166.433 16.4003 166.433 16.3073 166.433 16.204C166.433 15.6873 166.33 15.2327 166.123 14.84C165.917 14.4267 165.638 14.0857 165.286 13.817C164.935 13.5483 164.532 13.352 164.077 13.228C163.623 13.0833 163.147 13.011 162.651 13.011Z" fill="#1F1F1F"/>
</svg>
