<svg width="146" height="50" viewBox="0 0 146 50" fill="none" xmlns="http://www.w3.org/2000/svg">
<path d="M16.15 8.75V1.25H19.35V8.75H16.15ZM9.45 8.75V1.25H12.65V8.75H9.45ZM16.15 46.9V39.4H19.35V46.9H16.15ZM9.45 46.9V39.4H12.65V46.9H9.45ZM4.85 42V6.3H13.05C15.85 6.3 18.1833 6.58333 20.05 7.15C21.95 7.71667 23.3667 8.65 24.3 9.95C25.2667 11.25 25.75 12.9833 25.75 15.15C25.75 16.55 25.5167 17.8 25.05 18.9C24.6167 19.9667 23.95 20.8667 23.05 21.6C22.1833 22.3 21.1 22.7833 19.8 23.05V23.3C21.1333 23.5333 22.3167 23.9667 23.35 24.6C24.4167 25.2333 25.25 26.1333 25.85 27.3C26.4833 28.4667 26.8 29.9833 26.8 31.85C26.8 34.0167 26.3333 35.8667 25.4 37.4C24.5 38.9 23.2 40.05 21.5 40.85C19.8 41.6167 17.7667 42 15.4 42H4.85ZM13.95 21.5C16.6833 21.5 18.55 21.0167 19.55 20.05C20.5833 19.05 21.1 17.5833 21.1 15.65C21.1 13.6833 20.4667 12.2833 19.2 11.45C17.9667 10.5833 15.9833 10.15 13.25 10.15H9.35V21.5H13.95ZM9.35 25.25V38.2H14.55C17.3167 38.2 19.25 37.5833 20.35 36.35C21.45 35.1167 22 33.5 22 31.5C22 30.2333 21.75 29.1333 21.25 28.2C20.7833 27.2667 19.9833 26.55 18.85 26.05C17.7167 25.5167 16.1667 25.25 14.2 25.25H9.35ZM36.0133 42H32.5133V19H36.0133V42ZM31.7633 10.6C31.7633 9.93333 31.9966 9.33333 32.4633 8.8C32.9633 8.26667 33.5633 8 34.2633 8C34.9299 8 35.5299 8.26667 36.0633 8.8C36.5966 9.33333 36.8633 9.93333 36.8633 10.6C36.8633 11.3 36.5966 11.9 36.0633 12.4C35.5299 12.8667 34.9299 13.1 34.2633 13.1C33.5633 13.1 32.9633 12.8667 32.4633 12.4C31.9966 11.9 31.7633 11.3 31.7633 10.6ZM44.8426 21.35H40.9926V19.5L44.9426 19L45.6926 12.05H48.3426V19H53.7426V21.35H48.3426V37.3C48.3426 38.3667 48.4926 39.0667 48.7926 39.4C49.1259 39.7333 49.6259 39.9 50.2926 39.9C51.0592 39.9 51.7426 39.7833 52.3426 39.55C52.9426 39.3167 53.4759 39.0333 53.9426 38.7L54.6426 41.35C54.0759 41.6167 53.3259 41.8833 52.3926 42.15C51.4926 42.4167 50.4926 42.55 49.3926 42.55C48.3259 42.55 47.4926 42.4 46.8926 42.1C46.2926 41.8 45.8426 41.4 45.5426 40.9C45.2426 40.4 45.0426 39.85 44.9426 39.25C44.8759 38.6167 44.8426 38 44.8426 37.4V21.35ZM62.4664 16.95C62.4664 17.7833 62.6164 18.4833 62.9164 19.05C63.2497 19.5833 63.7497 20.0667 64.4164 20.5C65.1164 20.9333 65.9831 21.35 67.0164 21.75C68.0831 22.1167 69.3497 22.55 70.8164 23.05C72.0497 23.45 73.2664 23.9167 74.4664 24.45C75.6664 24.95 76.7331 25.5833 77.6664 26.35C78.6331 27.0833 79.3997 28.0167 79.9664 29.15C80.5331 30.25 80.8164 31.6 80.8164 33.2C80.8164 34.9 80.4831 36.35 79.8164 37.55C79.1497 38.75 78.2664 39.7333 77.1664 40.5C76.0664 41.2333 74.7997 41.7667 73.3664 42.1C71.9331 42.4333 70.4497 42.6 68.9164 42.6C66.7497 42.6 64.7331 42.3333 62.8664 41.8C60.9997 41.2667 59.3831 40.6167 58.0164 39.85L59.0664 36.2C59.6997 36.6333 60.3331 37.05 60.9664 37.45C61.5997 37.8167 62.2831 38.1333 63.0164 38.4C63.7831 38.6667 64.6164 38.8833 65.5164 39.05C66.4164 39.2167 67.4497 39.3 68.6164 39.3C70.1164 39.3 71.3997 39.1667 72.4664 38.9C73.5331 38.6333 74.3997 38.2667 75.0664 37.8C75.7331 37.3 76.2164 36.7167 76.5164 36.05C76.8164 35.3833 76.9664 34.6667 76.9664 33.9C76.9664 32.7667 76.6997 31.8167 76.1664 31.05C75.6331 30.25 74.9331 29.5667 74.0664 29C73.2331 28.4333 72.2997 27.9667 71.2664 27.6C70.2664 27.2 69.2664 26.8333 68.2664 26.5C66.8331 26.0333 65.5331 25.5333 64.3664 25C63.1997 24.4667 62.1997 23.8333 61.3664 23.1C60.5664 22.3667 59.9331 21.5167 59.4664 20.55C59.0331 19.5833 58.8164 18.4333 58.8164 17.1C58.8164 15.6 59.0831 14.3333 59.6164 13.3C60.1831 12.2333 60.9331 11.3667 61.8664 10.7C62.8331 10.0333 63.9664 9.55 65.2664 9.25C66.5664 8.91667 67.9664 8.75 69.4664 8.75C71.2664 8.75 72.9997 8.93333 74.6664 9.3C76.3331 9.66667 77.7497 10.1167 78.9164 10.65L77.8664 14.5C77.3331 14.0333 76.6997 13.65 75.9664 13.35C75.2664 13.0167 74.5164 12.7667 73.7164 12.6C72.9497 12.4 72.1831 12.2667 71.4164 12.2C70.6497 12.1 69.9331 12.05 69.2664 12.05C67.1664 12.05 65.4997 12.45 64.2664 13.25C63.0664 14.0167 62.4664 15.25 62.4664 16.95ZM101.605 42L101.205 37.9H101.005C100.605 38.5333 100.072 39.1333 99.4055 39.7C98.7388 40.2667 97.9888 40.7667 97.1555 41.2C96.3555 41.6333 95.4721 41.9667 94.5055 42.2C93.5721 42.4667 92.6388 42.6 91.7055 42.6C89.5055 42.6 87.8555 41.9667 86.7555 40.7C85.6555 39.4 85.1055 37.7833 85.1055 35.85C85.1055 33.95 85.5888 32.4333 86.5555 31.3C87.5221 30.1667 88.7055 29.3167 90.1055 28.75C91.5055 28.1833 92.9721 27.8167 94.5055 27.65C96.0721 27.4833 97.4388 27.4 98.6055 27.4H100.855V26.8C100.855 25.5333 100.672 24.5667 100.305 23.9C99.9721 23.2333 99.4721 22.6667 98.8055 22.2C98.2388 21.8333 97.6221 21.5833 96.9555 21.45C96.3221 21.2833 95.4721 21.2 94.4055 21.2C93.0055 21.2 91.7721 21.3833 90.7055 21.75C89.6388 22.1167 88.6055 22.6 87.6055 23.2L86.8055 20.2C89.0388 18.9 91.7055 18.25 94.8055 18.25C96.0388 18.25 97.2055 18.3667 98.3055 18.6C99.4055 18.8 100.372 19.1667 101.205 19.7C102.172 20.3 102.939 21.15 103.505 22.25C104.072 23.35 104.355 24.7167 104.355 26.35V42H101.605ZM92.7555 39.65C94.1221 39.65 95.5721 39.2167 97.1055 38.35C98.6388 37.4833 99.8888 36.2333 100.855 34.6V29.95H100.405C99.0388 29.95 97.6721 30 96.3055 30.1C94.9388 30.2 93.6888 30.45 92.5555 30.85C91.4555 31.25 90.5555 31.8333 89.8555 32.6C89.1555 33.3333 88.8055 34.35 88.8055 35.65C88.8055 36.95 89.1555 37.95 89.8555 38.65C90.5888 39.3167 91.5555 39.65 92.7555 39.65ZM113.108 21.35H109.258V19.5L113.108 19.05C113.108 17.1833 113.158 15.5833 113.258 14.25C113.391 12.9167 113.558 11.8 113.758 10.9C113.958 9.96666 114.174 9.21666 114.408 8.65C114.674 8.05 114.924 7.56666 115.158 7.2C115.791 6.26666 116.574 5.63333 117.508 5.3C118.441 4.93333 119.408 4.75 120.408 4.75C120.541 4.75 120.774 4.76666 121.108 4.8C121.441 4.8 121.808 4.83333 122.208 4.9C122.641 4.93333 123.074 5.01666 123.508 5.15C123.941 5.25 124.358 5.4 124.758 5.6L123.908 8.55C123.808 8.55 123.574 8.5 123.208 8.4C122.841 8.26666 122.424 8.13333 121.958 8C121.524 7.83333 121.041 7.68333 120.508 7.55C120.008 7.41667 119.558 7.35 119.158 7.35C118.658 7.35 118.241 7.5 117.908 7.8C117.574 8.06666 117.308 8.53333 117.108 9.2C116.941 9.83333 116.808 10.6833 116.708 11.75C116.641 12.8167 116.608 14.1333 116.608 15.7V19H122.008V21.35H116.608V42H113.108V21.35ZM136.759 18.25C139.692 18.25 141.959 19 143.559 20.5C145.159 21.9667 145.959 24.05 145.959 26.75C145.959 27.3167 145.925 27.9 145.859 28.5C145.792 29.0667 145.675 29.4833 145.509 29.75H128.659V30.25C128.659 31.5167 128.825 32.7333 129.159 33.9C129.492 35.0667 129.992 36.1 130.659 37C131.325 37.9 132.159 38.6167 133.159 39.15C134.192 39.6833 135.409 39.95 136.809 39.95C137.609 39.95 138.392 39.8667 139.159 39.7C139.925 39.5 140.659 39.2667 141.359 39C142.059 38.7 142.709 38.3833 143.309 38.05C143.909 37.7167 144.442 37.3833 144.909 37.05L145.509 39.9C145.075 40.1667 144.542 40.4667 143.909 40.8C143.275 41.1 142.575 41.3833 141.809 41.65C141.042 41.9167 140.192 42.1333 139.259 42.3C138.359 42.5 137.409 42.6 136.409 42.6C134.542 42.6 132.892 42.2833 131.459 41.65C130.025 40.9833 128.825 40.1 127.859 39C126.892 37.8667 126.159 36.5667 125.659 35.1C125.159 33.6333 124.909 32.1 124.909 30.5C124.909 28.8667 125.159 27.3167 125.659 25.85C126.192 24.35 126.959 23.0333 127.959 21.9C128.959 20.7667 130.192 19.8833 131.659 19.25C133.159 18.5833 134.859 18.25 136.759 18.25ZM136.609 21.05C134.409 21.05 132.692 21.6333 131.459 22.8C130.259 23.9333 129.442 25.3667 129.009 27.1H142.659C142.692 26.9333 142.709 26.7833 142.709 26.65C142.709 26.5167 142.709 26.3667 142.709 26.2C142.709 25.3667 142.542 24.6333 142.209 24C141.875 23.3333 141.425 22.7833 140.859 22.35C140.292 21.9167 139.642 21.6 138.909 21.4C138.175 21.1667 137.409 21.05 136.609 21.05Z" fill="white"/>
</svg>
