<svg width="27" height="27" viewBox="0 0 27 27" fill="none" xmlns="http://www.w3.org/2000/svg">
<g clip-path="url(#clip0_132_2976)">
<path fill-rule="evenodd" clip-rule="evenodd" d="M19.3106 2.42266C18.1309 2.1161 16.8889 2.19322 15.7527 2.64356C14.6165 3.0939 13.6409 3.89575 12.9578 4.94066C12.2823 5.97409 11.9251 7.19594 11.9331 8.44431C10.571 8.338 9.23855 7.95549 8.01238 7.31458C6.47084 6.50883 5.14512 5.31968 4.15328 3.85304L3.26673 4.49959L2.29777 3.99648C2.28915 4.01436 2.28103 4.03242 2.2734 4.05062L2.2702 4.05822L2.25767 4.08851C2.24741 4.11354 2.23346 4.1482 2.21637 4.192C2.18221 4.27956 2.13547 4.40384 2.08078 4.56094C1.97152 4.87478 1.82977 5.32172 1.69316 5.87026C1.42125 6.9621 1.16258 8.48466 1.2366 10.1757C1.31083 11.8716 1.72127 13.7602 2.80854 15.5429C3.6236 16.8794 4.79594 18.1182 6.42436 19.1617C4.77946 19.9486 2.9705 20.326 1.14312 20.2505C0.641837 20.2298 0.192442 20.5692 0.0569731 21.0708C-0.0784962 21.5724 0.135403 22.105 0.573949 22.358C5.74851 25.3433 11.5552 25.3712 16.0986 22.8599C20.6685 20.334 23.8501 15.2995 23.8501 8.43709L23.8501 8.43337C23.8495 8.25084 23.8411 8.06851 23.825 7.88694C24.8711 6.68161 25.6149 5.22313 25.986 3.64079L24.9334 3.37459L24.309 2.45529C23.5414 3.01749 22.7069 3.472 21.8271 3.80784C21.1117 3.14347 20.2488 2.66643 19.3106 2.42266ZM3.40103 10.0735C3.34719 8.84348 3.5061 7.70019 3.7051 6.79865C4.67208 7.82113 5.79723 8.67568 7.03826 9.32436C8.89896 10.2969 10.9624 10.7765 13.0448 10.7205C13.632 10.7047 14.1001 10.2058 14.1001 9.59584V8.47084L14.1 8.45576C14.0896 7.65383 14.3167 6.86794 14.7504 6.20439C15.1842 5.54084 15.8038 5.03163 16.5253 4.74565C17.2468 4.45966 18.0355 4.41069 18.7847 4.60537C19.5339 4.80004 20.2075 5.22896 20.7143 5.83411C20.9939 6.168 21.4361 6.30065 21.8441 6.17307C22.095 6.0946 22.3433 6.00828 22.5887 5.91428C22.3842 6.19178 22.1607 6.45519 21.9194 6.70234C21.6619 6.96602 21.5481 7.34572 21.616 7.71456C21.6599 7.95336 21.6825 8.19586 21.6834 8.43897C21.6828 14.513 18.9063 18.7592 15.0806 20.8737C12.266 22.4294 8.82452 22.8634 5.39017 21.9547C6.77045 21.542 8.08831 20.9038 9.29183 20.0554C9.61729 19.826 9.79742 19.4314 9.76243 19.0245C9.72745 18.6177 9.48283 18.2625 9.12338 18.0966C6.85911 17.0515 5.47704 15.7132 4.63898 14.3391C3.79656 12.9578 3.46221 11.4713 3.40103 10.0735Z" fill="#F5F5F5"/>
</g>
<defs>
<clipPath id="clip0_132_2976">
<rect width="26" height="27" fill="white" transform="translate(0.0167236)"/>
</clipPath>
</defs>
</svg>
