<svg width="332" height="28" viewBox="0 0 332 28" fill="none" xmlns="http://www.w3.org/2000/svg">
<path d="M17.2 8.62L11.62 25H8.77L0.97 5.2H3.52L10.18 22.15L15.97 5.2H18.52L24.67 22.09L30.7 5.2H33.1L26.05 25H23.2L17.2 8.62ZM40.6626 10.75C42.4226 10.75 43.7826 11.2 44.7426 12.1C45.7026 12.98 46.1826 14.23 46.1826 15.85C46.1826 16.19 46.1626 16.54 46.1226 16.9C46.0826 17.24 46.0126 17.49 45.9126 17.65H35.8026V17.95C35.8026 18.71 35.9026 19.44 36.1026 20.14C36.3026 20.84 36.6026 21.46 37.0026 22C37.4026 22.54 37.9026 22.97 38.5026 23.29C39.1226 23.61 39.8526 23.77 40.6926 23.77C41.1726 23.77 41.6426 23.72 42.1026 23.62C42.5626 23.5 43.0026 23.36 43.4226 23.2C43.8426 23.02 44.2326 22.83 44.5926 22.63C44.9526 22.43 45.2726 22.23 45.5526 22.03L45.9126 23.74C45.6526 23.9 45.3326 24.08 44.9526 24.28C44.5726 24.46 44.1526 24.63 43.6926 24.79C43.2326 24.95 42.7226 25.08 42.1626 25.18C41.6226 25.3 41.0526 25.36 40.4526 25.36C39.3326 25.36 38.3426 25.17 37.4826 24.79C36.6226 24.39 35.9026 23.86 35.3226 23.2C34.7426 22.52 34.3026 21.74 34.0026 20.86C33.7026 19.98 33.5526 19.06 33.5526 18.1C33.5526 17.12 33.7026 16.19 34.0026 15.31C34.3226 14.41 34.7826 13.62 35.3826 12.94C35.9826 12.26 36.7226 11.73 37.6026 11.35C38.5026 10.95 39.5226 10.75 40.6626 10.75ZM40.5726 12.43C39.2526 12.43 38.2226 12.78 37.4826 13.48C36.7626 14.16 36.2726 15.02 36.0126 16.06H44.2026C44.2226 15.96 44.2326 15.87 44.2326 15.79C44.2326 15.71 44.2326 15.62 44.2326 15.52C44.2326 15.02 44.1326 14.58 43.9326 14.2C43.7326 13.8 43.4626 13.47 43.1226 13.21C42.7826 12.95 42.3926 12.76 41.9526 12.64C41.5126 12.5 41.0526 12.43 40.5726 12.43ZM52.2606 25H50.1606V2.8H52.2606V25ZM67.8991 13.72C67.4391 13.38 66.7791 13.08 65.9191 12.82C65.0591 12.54 64.1991 12.4 63.3391 12.4C62.4591 12.4 61.7091 12.55 61.0891 12.85C60.4891 13.15 59.9891 13.55 59.5891 14.05C59.1891 14.55 58.8991 15.13 58.7191 15.79C58.5391 16.43 58.4491 17.1 58.4491 17.8C58.4491 18.58 58.5591 19.33 58.7791 20.05C58.9991 20.77 59.3191 21.4 59.7391 21.94C60.1791 22.48 60.7091 22.91 61.3291 23.23C61.9691 23.55 62.7091 23.71 63.5491 23.71C64.3491 23.71 65.1691 23.54 66.0091 23.2C66.8691 22.86 67.5791 22.43 68.1391 21.91L68.5591 23.86C67.9991 24.22 67.2291 24.56 66.2491 24.88C65.2891 25.2 64.2591 25.36 63.1591 25.36C61.9991 25.36 60.9791 25.16 60.0991 24.76C59.2391 24.36 58.5191 23.83 57.9391 23.17C57.3791 22.49 56.9491 21.71 56.6491 20.83C56.3691 19.93 56.2291 18.98 56.2291 17.98C56.2291 17.02 56.3591 16.11 56.6191 15.25C56.8991 14.37 57.3291 13.6 57.9091 12.94C58.4891 12.26 59.2291 11.73 60.1291 11.35C61.0291 10.95 62.1091 10.75 63.3691 10.75C64.3291 10.75 65.2691 10.86 66.1891 11.08C67.1091 11.3 67.8491 11.59 68.4091 11.95L67.8991 13.72ZM77.984 10.75C79.204 10.75 80.254 10.96 81.134 11.38C82.014 11.78 82.734 12.33 83.294 13.03C83.874 13.71 84.294 14.5 84.554 15.4C84.834 16.28 84.974 17.21 84.974 18.19C84.974 19.17 84.834 20.1 84.554 20.98C84.294 21.84 83.884 22.6 83.324 23.26C82.764 23.9 82.044 24.41 81.164 24.79C80.304 25.17 79.284 25.36 78.104 25.36C76.884 25.36 75.824 25.16 74.924 24.76C74.044 24.36 73.314 23.83 72.734 23.17C72.154 22.49 71.724 21.71 71.444 20.83C71.164 19.95 71.024 19.02 71.024 18.04C71.024 17.06 71.164 16.13 71.444 15.25C71.724 14.37 72.144 13.6 72.704 12.94C73.284 12.26 74.014 11.73 74.894 11.35C75.774 10.95 76.804 10.75 77.984 10.75ZM78.074 23.77C78.874 23.77 79.564 23.62 80.144 23.32C80.744 23.02 81.234 22.62 81.614 22.12C82.014 21.6 82.304 21.01 82.484 20.35C82.664 19.67 82.754 18.96 82.754 18.22C82.754 17.46 82.654 16.73 82.454 16.03C82.274 15.33 81.984 14.72 81.584 14.2C81.184 13.66 80.674 13.23 80.054 12.91C79.454 12.59 78.734 12.43 77.894 12.43C77.074 12.43 76.374 12.58 75.794 12.88C75.214 13.18 74.734 13.58 74.354 14.08C73.974 14.58 73.694 15.17 73.514 15.85C73.334 16.51 73.244 17.21 73.244 17.95C73.244 18.71 73.334 19.44 73.514 20.14C73.714 20.84 74.004 21.46 74.384 22C74.784 22.54 75.284 22.97 75.884 23.29C76.504 23.61 77.234 23.77 78.074 23.77ZM98.3104 25V15.88C98.3104 14.66 98.0304 13.8 97.4704 13.3C96.9104 12.78 96.2104 12.52 95.3704 12.52C94.3504 12.52 93.4304 12.84 92.6104 13.48C91.7904 14.1 91.2004 14.99 90.8404 16.15V25H88.7404V11.2H90.3904L90.6304 13.78H90.7504C91.0104 12.94 91.5504 12.23 92.3704 11.65C93.2104 11.05 94.2904 10.75 95.6104 10.75C96.8104 10.75 97.8104 11.02 98.6104 11.56C99.4304 12.08 99.9504 12.82 100.17 13.78C100.37 13.38 100.62 13 100.92 12.64C101.22 12.28 101.58 11.96 102 11.68C102.42 11.4 102.9 11.18 103.44 11.02C103.98 10.84 104.59 10.75 105.27 10.75C105.89 10.75 106.48 10.84 107.04 11.02C107.62 11.18 108.12 11.45 108.54 11.83C108.98 12.21 109.33 12.71 109.59 13.33C109.85 13.95 109.98 14.71 109.98 15.61V25H107.88V15.88C107.88 14.66 107.6 13.8 107.04 13.3C106.48 12.78 105.78 12.52 104.94 12.52C103.92 12.52 103 12.84 102.18 13.48C101.36 14.1 100.77 14.99 100.41 16.15V25H98.3104ZM120.702 10.75C122.462 10.75 123.822 11.2 124.782 12.1C125.742 12.98 126.222 14.23 126.222 15.85C126.222 16.19 126.202 16.54 126.162 16.9C126.122 17.24 126.052 17.49 125.952 17.65H115.842V17.95C115.842 18.71 115.942 19.44 116.142 20.14C116.342 20.84 116.642 21.46 117.042 22C117.442 22.54 117.942 22.97 118.542 23.29C119.162 23.61 119.892 23.77 120.732 23.77C121.212 23.77 121.682 23.72 122.142 23.62C122.602 23.5 123.042 23.36 123.462 23.2C123.882 23.02 124.272 22.83 124.632 22.63C124.992 22.43 125.312 22.23 125.592 22.03L125.952 23.74C125.692 23.9 125.372 24.08 124.992 24.28C124.612 24.46 124.192 24.63 123.732 24.79C123.272 24.95 122.762 25.08 122.202 25.18C121.662 25.3 121.092 25.36 120.492 25.36C119.372 25.36 118.382 25.17 117.522 24.79C116.662 24.39 115.942 23.86 115.362 23.2C114.782 22.52 114.342 21.74 114.042 20.86C113.742 19.98 113.592 19.06 113.592 18.1C113.592 17.12 113.742 16.19 114.042 15.31C114.362 14.41 114.822 13.62 115.422 12.94C116.022 12.26 116.762 11.73 117.642 11.35C118.542 10.95 119.562 10.75 120.702 10.75ZM120.612 12.43C119.292 12.43 118.262 12.78 117.522 13.48C116.802 14.16 116.312 15.02 116.052 16.06H124.242C124.262 15.96 124.272 15.87 124.272 15.79C124.272 15.71 124.272 15.62 124.272 15.52C124.272 15.02 124.172 14.58 123.972 14.2C123.772 13.8 123.502 13.47 123.162 13.21C122.822 12.95 122.432 12.76 121.992 12.64C121.552 12.5 121.092 12.43 120.612 12.43ZM137.593 12.61H135.283V11.5L137.653 11.2L138.103 7.03H139.693V11.2H142.933V12.61H139.693V22.18C139.693 22.82 139.783 23.24 139.963 23.44C140.163 23.64 140.463 23.74 140.863 23.74C141.323 23.74 141.733 23.67 142.093 23.53C142.453 23.39 142.773 23.22 143.053 23.02L143.473 24.61C143.133 24.77 142.683 24.93 142.123 25.09C141.583 25.25 140.983 25.33 140.323 25.33C139.683 25.33 139.183 25.24 138.823 25.06C138.463 24.88 138.193 24.64 138.013 24.34C137.833 24.04 137.713 23.71 137.653 23.35C137.613 22.97 137.593 22.6 137.593 22.24V12.61ZM152.427 10.75C153.647 10.75 154.697 10.96 155.577 11.38C156.457 11.78 157.177 12.33 157.737 13.03C158.317 13.71 158.737 14.5 158.997 15.4C159.277 16.28 159.417 17.21 159.417 18.19C159.417 19.17 159.277 20.1 158.997 20.98C158.737 21.84 158.327 22.6 157.767 23.26C157.207 23.9 156.487 24.41 155.607 24.79C154.747 25.17 153.727 25.36 152.547 25.36C151.327 25.36 150.267 25.16 149.367 24.76C148.487 24.36 147.757 23.83 147.177 23.17C146.597 22.49 146.167 21.71 145.887 20.83C145.607 19.95 145.467 19.02 145.467 18.04C145.467 17.06 145.607 16.13 145.887 15.25C146.167 14.37 146.587 13.6 147.147 12.94C147.727 12.26 148.457 11.73 149.337 11.35C150.217 10.95 151.247 10.75 152.427 10.75ZM152.517 23.77C153.317 23.77 154.007 23.62 154.587 23.32C155.187 23.02 155.677 22.62 156.057 22.12C156.457 21.6 156.747 21.01 156.927 20.35C157.107 19.67 157.197 18.96 157.197 18.22C157.197 17.46 157.097 16.73 156.897 16.03C156.717 15.33 156.427 14.72 156.027 14.2C155.627 13.66 155.117 13.23 154.497 12.91C153.897 12.59 153.177 12.43 152.337 12.43C151.517 12.43 150.817 12.58 150.237 12.88C149.657 13.18 149.177 13.58 148.797 14.08C148.417 14.58 148.137 15.17 147.957 15.85C147.777 16.51 147.687 17.21 147.687 17.95C147.687 18.71 147.777 19.44 147.957 20.14C148.157 20.84 148.447 21.46 148.827 22C149.227 22.54 149.727 22.97 150.327 23.29C150.947 23.61 151.677 23.77 152.517 23.77ZM177.887 5.05V0.549998H179.807V5.05H177.887ZM173.867 5.05V0.549998H175.787V5.05H173.867ZM177.887 27.94V23.44H179.807V27.94H177.887ZM173.867 27.94V23.44H175.787V27.94H173.867ZM171.107 25V3.58H176.027C177.707 3.58 179.107 3.75 180.227 4.09C181.367 4.43 182.217 4.99 182.777 5.77C183.357 6.55 183.647 7.59 183.647 8.89C183.647 9.73 183.507 10.48 183.227 11.14C182.967 11.78 182.567 12.32 182.027 12.76C181.507 13.18 180.857 13.47 180.077 13.63V13.78C180.877 13.92 181.587 14.18 182.207 14.56C182.847 14.94 183.347 15.48 183.707 16.18C184.087 16.88 184.277 17.79 184.277 18.91C184.277 20.21 183.997 21.32 183.437 22.24C182.897 23.14 182.117 23.83 181.097 24.31C180.077 24.77 178.857 25 177.437 25H171.107ZM176.567 12.7C178.207 12.7 179.327 12.41 179.927 11.83C180.547 11.23 180.857 10.35 180.857 9.19C180.857 8.01 180.477 7.17 179.717 6.67C178.977 6.15 177.787 5.89 176.147 5.89H173.807V12.7H176.567ZM173.807 14.95V22.72H176.927C178.587 22.72 179.747 22.35 180.407 21.61C181.067 20.87 181.397 19.9 181.397 18.7C181.397 17.94 181.247 17.28 180.947 16.72C180.667 16.16 180.187 15.73 179.507 15.43C178.827 15.11 177.897 14.95 176.717 14.95H173.807ZM189.805 25H187.705V11.2H189.805V25ZM187.255 6.16C187.255 5.76 187.395 5.4 187.675 5.08C187.975 4.76 188.335 4.6 188.755 4.6C189.155 4.6 189.515 4.76 189.835 5.08C190.155 5.4 190.315 5.76 190.315 6.16C190.315 6.58 190.155 6.94 189.835 7.24C189.515 7.52 189.155 7.66 188.755 7.66C188.335 7.66 187.975 7.52 187.675 7.24C187.395 6.94 187.255 6.58 187.255 6.16ZM195.103 12.61H192.793V11.5L195.163 11.2L195.613 7.03H197.203V11.2H200.443V12.61H197.203V22.18C197.203 22.82 197.293 23.24 197.473 23.44C197.673 23.64 197.973 23.74 198.373 23.74C198.833 23.74 199.243 23.67 199.603 23.53C199.963 23.39 200.283 23.22 200.563 23.02L200.983 24.61C200.643 24.77 200.193 24.93 199.633 25.09C199.093 25.25 198.493 25.33 197.833 25.33C197.193 25.33 196.693 25.24 196.333 25.06C195.973 24.88 195.703 24.64 195.523 24.34C195.343 24.04 195.223 23.71 195.163 23.35C195.123 22.97 195.103 22.6 195.103 22.24V12.61ZM205.677 9.97C205.677 10.47 205.767 10.89 205.947 11.23C206.147 11.55 206.447 11.84 206.847 12.1C207.267 12.36 207.787 12.61 208.407 12.85C209.047 13.07 209.807 13.33 210.687 13.63C211.427 13.87 212.157 14.15 212.877 14.47C213.597 14.77 214.237 15.15 214.797 15.61C215.377 16.05 215.837 16.61 216.177 17.29C216.517 17.95 216.687 18.76 216.687 19.72C216.687 20.74 216.487 21.61 216.087 22.33C215.687 23.05 215.157 23.64 214.497 24.1C213.837 24.54 213.077 24.86 212.217 25.06C211.357 25.26 210.467 25.36 209.547 25.36C208.247 25.36 207.037 25.2 205.917 24.88C204.797 24.56 203.827 24.17 203.007 23.71L203.637 21.52C204.017 21.78 204.397 22.03 204.777 22.27C205.157 22.49 205.567 22.68 206.007 22.84C206.467 23 206.967 23.13 207.507 23.23C208.047 23.33 208.667 23.38 209.367 23.38C210.267 23.38 211.037 23.3 211.677 23.14C212.317 22.98 212.837 22.76 213.237 22.48C213.637 22.18 213.927 21.83 214.107 21.43C214.287 21.03 214.377 20.6 214.377 20.14C214.377 19.46 214.217 18.89 213.897 18.43C213.577 17.95 213.157 17.54 212.637 17.2C212.137 16.86 211.577 16.58 210.957 16.36C210.357 16.12 209.757 15.9 209.157 15.7C208.297 15.42 207.517 15.12 206.817 14.8C206.117 14.48 205.517 14.1 205.017 13.66C204.537 13.22 204.157 12.71 203.877 12.13C203.617 11.55 203.487 10.86 203.487 10.06C203.487 9.16 203.647 8.4 203.967 7.78C204.307 7.14 204.757 6.62 205.317 6.22C205.897 5.82 206.577 5.53 207.357 5.35C208.137 5.15 208.977 5.05 209.877 5.05C210.957 5.05 211.997 5.16 212.997 5.38C213.997 5.6 214.847 5.87 215.547 6.19L214.917 8.5C214.597 8.22 214.217 7.99 213.777 7.81C213.357 7.61 212.907 7.46 212.427 7.36C211.967 7.24 211.507 7.16 211.047 7.12C210.587 7.06 210.157 7.03 209.757 7.03C208.497 7.03 207.497 7.27 206.757 7.75C206.037 8.21 205.677 8.95 205.677 9.97ZM229.161 25L228.921 22.54H228.801C228.561 22.92 228.241 23.28 227.841 23.62C227.441 23.96 226.991 24.26 226.491 24.52C226.011 24.78 225.481 24.98 224.901 25.12C224.341 25.28 223.781 25.36 223.221 25.36C221.901 25.36 220.911 24.98 220.251 24.22C219.591 23.44 219.261 22.47 219.261 21.31C219.261 20.17 219.551 19.26 220.131 18.58C220.711 17.9 221.421 17.39 222.261 17.05C223.101 16.71 223.981 16.49 224.901 16.39C225.841 16.29 226.661 16.24 227.361 16.24H228.711V15.88C228.711 15.12 228.601 14.54 228.381 14.14C228.181 13.74 227.881 13.4 227.481 13.12C227.141 12.9 226.771 12.75 226.371 12.67C225.991 12.57 225.481 12.52 224.841 12.52C224.001 12.52 223.261 12.63 222.621 12.85C221.981 13.07 221.361 13.36 220.761 13.72L220.281 11.92C221.621 11.14 223.221 10.75 225.081 10.75C225.821 10.75 226.521 10.82 227.181 10.96C227.841 11.08 228.421 11.3 228.921 11.62C229.501 11.98 229.961 12.49 230.301 13.15C230.641 13.81 230.811 14.63 230.811 15.61V25H229.161ZM223.851 23.59C224.671 23.59 225.541 23.33 226.461 22.81C227.381 22.29 228.131 21.54 228.711 20.56V17.77H228.441C227.621 17.77 226.801 17.8 225.981 17.86C225.161 17.92 224.411 18.07 223.731 18.31C223.071 18.55 222.531 18.9 222.111 19.36C221.691 19.8 221.481 20.41 221.481 21.19C221.481 21.97 221.691 22.57 222.111 22.99C222.551 23.39 223.131 23.59 223.851 23.59ZM236.062 12.61H233.752V11.5L236.062 11.23C236.062 10.11 236.092 9.15 236.152 8.35C236.232 7.55 236.332 6.88 236.452 6.34C236.572 5.78 236.702 5.33 236.842 4.99C237.002 4.63 237.152 4.34 237.292 4.12C237.672 3.56 238.142 3.18 238.702 2.98C239.262 2.76 239.842 2.65 240.442 2.65C240.522 2.65 240.662 2.66 240.862 2.68C241.062 2.68 241.282 2.7 241.522 2.74C241.782 2.76 242.042 2.81 242.302 2.89C242.562 2.95 242.812 3.04 243.052 3.16L242.542 4.93C242.482 4.93 242.342 4.9 242.122 4.84C241.902 4.76 241.652 4.68 241.372 4.6C241.112 4.5 240.822 4.41 240.502 4.33C240.202 4.25 239.932 4.21 239.692 4.21C239.392 4.21 239.142 4.3 238.942 4.48C238.742 4.64 238.582 4.92 238.462 5.32C238.362 5.7 238.282 6.21 238.222 6.85C238.182 7.49 238.162 8.28 238.162 9.22V11.2H241.402V12.61H238.162V25H236.062V12.61ZM250.252 10.75C252.012 10.75 253.372 11.2 254.332 12.1C255.292 12.98 255.772 14.23 255.772 15.85C255.772 16.19 255.752 16.54 255.712 16.9C255.672 17.24 255.602 17.49 255.502 17.65H245.392V17.95C245.392 18.71 245.492 19.44 245.692 20.14C245.892 20.84 246.192 21.46 246.592 22C246.992 22.54 247.492 22.97 248.092 23.29C248.712 23.61 249.442 23.77 250.282 23.77C250.762 23.77 251.232 23.72 251.692 23.62C252.152 23.5 252.592 23.36 253.012 23.2C253.432 23.02 253.822 22.83 254.182 22.63C254.542 22.43 254.862 22.23 255.142 22.03L255.502 23.74C255.242 23.9 254.922 24.08 254.542 24.28C254.162 24.46 253.742 24.63 253.282 24.79C252.822 24.95 252.312 25.08 251.752 25.18C251.212 25.3 250.642 25.36 250.042 25.36C248.922 25.36 247.932 25.17 247.072 24.79C246.212 24.39 245.492 23.86 244.912 23.2C244.332 22.52 243.892 21.74 243.592 20.86C243.292 19.98 243.142 19.06 243.142 18.1C243.142 17.12 243.292 16.19 243.592 15.31C243.912 14.41 244.372 13.62 244.972 12.94C245.572 12.26 246.312 11.73 247.192 11.35C248.092 10.95 249.112 10.75 250.252 10.75ZM250.162 12.43C248.842 12.43 247.812 12.78 247.072 13.48C246.352 14.16 245.862 15.02 245.602 16.06H253.792C253.812 15.96 253.822 15.87 253.822 15.79C253.822 15.71 253.822 15.62 253.822 15.52C253.822 15.02 253.722 14.58 253.522 14.2C253.322 13.8 253.052 13.47 252.712 13.21C252.372 12.95 251.982 12.76 251.542 12.64C251.102 12.5 250.642 12.43 250.162 12.43ZM259.36 23.95C259.36 23.57 259.49 23.24 259.75 22.96C260.01 22.66 260.34 22.51 260.74 22.51C261.12 22.51 261.45 22.66 261.73 22.96C262.03 23.24 262.18 23.57 262.18 23.95C262.18 24.33 262.03 24.66 261.73 24.94C261.45 25.2 261.12 25.33 260.74 25.33C260.34 25.33 260.01 25.2 259.75 24.94C259.49 24.66 259.36 24.33 259.36 23.95ZM268.431 9.97C268.431 10.47 268.521 10.89 268.701 11.23C268.901 11.55 269.201 11.84 269.601 12.1C270.021 12.36 270.541 12.61 271.161 12.85C271.801 13.07 272.561 13.33 273.441 13.63C274.181 13.87 274.911 14.15 275.631 14.47C276.351 14.77 276.991 15.15 277.551 15.61C278.131 16.05 278.591 16.61 278.931 17.29C279.271 17.95 279.441 18.76 279.441 19.72C279.441 20.74 279.241 21.61 278.841 22.33C278.441 23.05 277.911 23.64 277.251 24.1C276.591 24.54 275.831 24.86 274.971 25.06C274.111 25.26 273.221 25.36 272.301 25.36C271.001 25.36 269.791 25.2 268.671 24.88C267.551 24.56 266.581 24.17 265.761 23.71L266.391 21.52C266.771 21.78 267.151 22.03 267.531 22.27C267.911 22.49 268.321 22.68 268.761 22.84C269.221 23 269.721 23.13 270.261 23.23C270.801 23.33 271.421 23.38 272.121 23.38C273.021 23.38 273.791 23.3 274.431 23.14C275.071 22.98 275.591 22.76 275.991 22.48C276.391 22.18 276.681 21.83 276.861 21.43C277.041 21.03 277.131 20.6 277.131 20.14C277.131 19.46 276.971 18.89 276.651 18.43C276.331 17.95 275.911 17.54 275.391 17.2C274.891 16.86 274.331 16.58 273.711 16.36C273.111 16.12 272.511 15.9 271.911 15.7C271.051 15.42 270.271 15.12 269.571 14.8C268.871 14.48 268.271 14.1 267.771 13.66C267.291 13.22 266.911 12.71 266.631 12.13C266.371 11.55 266.241 10.86 266.241 10.06C266.241 9.16 266.401 8.4 266.721 7.78C267.061 7.14 267.511 6.62 268.071 6.22C268.651 5.82 269.331 5.53 270.111 5.35C270.891 5.15 271.731 5.05 272.631 5.05C273.711 5.05 274.751 5.16 275.751 5.38C276.751 5.6 277.601 5.87 278.301 6.19L277.671 8.5C277.351 8.22 276.971 7.99 276.531 7.81C276.111 7.61 275.661 7.46 275.181 7.36C274.721 7.24 274.261 7.16 273.801 7.12C273.341 7.06 272.911 7.03 272.511 7.03C271.251 7.03 270.251 7.27 269.511 7.75C268.791 8.21 268.431 8.95 268.431 9.97ZM283.491 12.61H281.181V11.5L283.551 11.2L284.001 7.03H285.591V11.2H288.831V12.61H285.591V22.18C285.591 22.82 285.681 23.24 285.861 23.44C286.061 23.64 286.361 23.74 286.761 23.74C287.221 23.74 287.631 23.67 287.991 23.53C288.351 23.39 288.671 23.22 288.951 23.02L289.371 24.61C289.031 24.77 288.581 24.93 288.021 25.09C287.481 25.25 286.881 25.33 286.221 25.33C285.581 25.33 285.081 25.24 284.721 25.06C284.361 24.88 284.091 24.64 283.911 24.34C283.731 24.04 283.611 23.71 283.551 23.35C283.511 22.97 283.491 22.6 283.491 22.24V12.61ZM298.326 10.75C299.546 10.75 300.596 10.96 301.476 11.38C302.356 11.78 303.076 12.33 303.636 13.03C304.216 13.71 304.636 14.5 304.896 15.4C305.176 16.28 305.316 17.21 305.316 18.19C305.316 19.17 305.176 20.1 304.896 20.98C304.636 21.84 304.226 22.6 303.666 23.26C303.106 23.9 302.386 24.41 301.506 24.79C300.646 25.17 299.626 25.36 298.446 25.36C297.226 25.36 296.166 25.16 295.266 24.76C294.386 24.36 293.656 23.83 293.076 23.17C292.496 22.49 292.066 21.71 291.786 20.83C291.506 19.95 291.366 19.02 291.366 18.04C291.366 17.06 291.506 16.13 291.786 15.25C292.066 14.37 292.486 13.6 293.046 12.94C293.626 12.26 294.356 11.73 295.236 11.35C296.116 10.95 297.146 10.75 298.326 10.75ZM298.416 23.77C299.216 23.77 299.906 23.62 300.486 23.32C301.086 23.02 301.576 22.62 301.956 22.12C302.356 21.6 302.646 21.01 302.826 20.35C303.006 19.67 303.096 18.96 303.096 18.22C303.096 17.46 302.996 16.73 302.796 16.03C302.616 15.33 302.326 14.72 301.926 14.2C301.526 13.66 301.016 13.23 300.396 12.91C299.796 12.59 299.076 12.43 298.236 12.43C297.416 12.43 296.716 12.58 296.136 12.88C295.556 13.18 295.076 13.58 294.696 14.08C294.316 14.58 294.036 15.17 293.856 15.85C293.676 16.51 293.586 17.21 293.586 17.95C293.586 18.71 293.676 19.44 293.856 20.14C294.056 20.84 294.346 21.46 294.726 22C295.126 22.54 295.626 22.97 296.226 23.29C296.846 23.61 297.576 23.77 298.416 23.77ZM316.522 13.42C316.202 13.24 315.882 13.1 315.562 13C315.242 12.88 314.932 12.82 314.632 12.82C314.232 12.82 313.852 12.93 313.492 13.15C313.132 13.37 312.802 13.67 312.502 14.05C312.202 14.43 311.932 14.87 311.692 15.37C311.472 15.87 311.302 16.39 311.182 16.93V25H309.082V11.2H310.732L310.972 14.23H311.092C311.232 13.77 311.412 13.33 311.632 12.91C311.872 12.49 312.152 12.12 312.472 11.8C312.812 11.48 313.192 11.23 313.612 11.05C314.032 10.85 314.512 10.75 315.052 10.75C315.432 10.75 315.832 10.82 316.252 10.96C316.672 11.08 316.972 11.24 317.152 11.44L316.522 13.42ZM325.692 10.75C327.452 10.75 328.812 11.2 329.772 12.1C330.732 12.98 331.212 14.23 331.212 15.85C331.212 16.19 331.192 16.54 331.152 16.9C331.112 17.24 331.042 17.49 330.942 17.65H320.832V17.95C320.832 18.71 320.932 19.44 321.132 20.14C321.332 20.84 321.632 21.46 322.032 22C322.432 22.54 322.932 22.97 323.532 23.29C324.152 23.61 324.882 23.77 325.722 23.77C326.202 23.77 326.672 23.72 327.132 23.62C327.592 23.5 328.032 23.36 328.452 23.2C328.872 23.02 329.262 22.83 329.622 22.63C329.982 22.43 330.302 22.23 330.582 22.03L330.942 23.74C330.682 23.9 330.362 24.08 329.982 24.28C329.602 24.46 329.182 24.63 328.722 24.79C328.262 24.95 327.752 25.08 327.192 25.18C326.652 25.3 326.082 25.36 325.482 25.36C324.362 25.36 323.372 25.17 322.512 24.79C321.652 24.39 320.932 23.86 320.352 23.2C319.772 22.52 319.332 21.74 319.032 20.86C318.732 19.98 318.582 19.06 318.582 18.1C318.582 17.12 318.732 16.19 319.032 15.31C319.352 14.41 319.812 13.62 320.412 12.94C321.012 12.26 321.752 11.73 322.632 11.35C323.532 10.95 324.552 10.75 325.692 10.75ZM325.602 12.43C324.282 12.43 323.252 12.78 322.512 13.48C321.792 14.16 321.302 15.02 321.042 16.06H329.232C329.252 15.96 329.262 15.87 329.262 15.79C329.262 15.71 329.262 15.62 329.262 15.52C329.262 15.02 329.162 14.58 328.962 14.2C328.762 13.8 328.492 13.47 328.152 13.21C327.812 12.95 327.422 12.76 326.982 12.64C326.542 12.5 326.082 12.43 325.602 12.43Z" fill="#1F1F1F"/>
</svg>
