<svg width="348" height="52" viewBox="0 0 348 52" fill="none" xmlns="http://www.w3.org/2000/svg">
<g filter="url(#filter0_d_132_2851)">
<path d="M24.84 11.16L12.76 33H8.96L4.16 6.6H7.56L11.64 29.2L24.16 6.6H27.56L31 29.12L43.8 6.6H47L32 33H28.2L24.84 11.16ZM55.7216 14C57.7216 14 59.2416 14.4667 60.2816 15.4C61.3216 16.3067 61.8416 17.6 61.8416 19.28C61.8416 20.0533 61.7216 20.8267 61.4816 21.6C61.2416 22.3467 61.0016 22.88 60.7616 23.2H47.1616C47.0016 23.9733 46.9216 24.7333 46.9216 25.48C46.9216 26.28 47.0149 27.04 47.2016 27.76C47.4149 28.4533 47.7216 29.0667 48.1216 29.6C48.5482 30.1333 49.0816 30.56 49.7216 30.88C50.3882 31.2 51.1616 31.36 52.0416 31.36C52.6816 31.36 53.3216 31.2933 53.9616 31.16C54.6282 31 55.2549 30.8133 55.8416 30.6C56.4549 30.36 57.0282 30.1067 57.5616 29.84C58.1216 29.5733 58.6149 29.3067 59.0416 29.04V31.32C58.6416 31.5333 58.1616 31.7733 57.6016 32.04C57.0416 32.28 56.4282 32.5067 55.7616 32.72C55.0949 32.9333 54.3749 33.1067 53.6016 33.24C52.8549 33.4 52.0816 33.48 51.2816 33.48C50.0282 33.48 48.9349 33.28 48.0016 32.88C47.0949 32.4533 46.3349 31.8933 45.7216 31.2C45.1082 30.5067 44.6416 29.6933 44.3216 28.76C44.0282 27.8267 43.8816 26.84 43.8816 25.8C43.8816 24.3067 44.1616 22.8533 44.7216 21.44C45.2816 20.0267 46.0816 18.7733 47.1216 17.68C48.1616 16.56 49.4016 15.6667 50.8416 15C52.3082 14.3333 53.9349 14 55.7216 14ZM55.1216 16.24C53.2816 16.24 51.7616 16.7067 50.5616 17.64C49.3616 18.5733 48.4549 19.72 47.8416 21.08H58.9216C58.9749 20.9467 59.0282 20.8 59.0816 20.64C59.1616 20.4533 59.2016 20.12 59.2016 19.64C59.2016 18.52 58.8016 17.68 58.0016 17.12C57.2016 16.5333 56.2416 16.24 55.1216 16.24ZM67.0266 33H64.2266L70.5066 3.4H73.3066L67.0266 33ZM91.0797 17.96C90.573 17.5067 89.7864 17.1067 88.7197 16.76C87.653 16.3867 86.5464 16.2 85.3997 16.2C83.9864 16.2 82.7597 16.4667 81.7197 17C80.6797 17.5333 79.813 18.24 79.1197 19.12C78.453 19.9733 77.9464 20.9333 77.5997 22C77.2797 23.0667 77.1197 24.1333 77.1197 25.2C77.1197 26.0267 77.2264 26.8133 77.4397 27.56C77.653 28.28 77.973 28.92 78.3997 29.48C78.853 30.04 79.413 30.48 80.0797 30.8C80.7464 31.12 81.5464 31.28 82.4797 31.28C83.5464 31.28 84.693 31.0533 85.9197 30.6C87.1464 30.1467 88.213 29.5733 89.1197 28.88V31.48C88.2664 31.96 87.1464 32.4133 85.7597 32.84C84.373 33.2667 82.9464 33.48 81.4797 33.48C80.1997 33.48 79.093 33.28 78.1597 32.88C77.2264 32.48 76.453 31.9333 75.8397 31.24C75.2264 30.52 74.773 29.6933 74.4797 28.76C74.1864 27.8267 74.0397 26.84 74.0397 25.8C74.0397 24.36 74.2797 22.9333 74.7597 21.52C75.2397 20.1067 75.973 18.8533 76.9597 17.76C77.9464 16.64 79.1864 15.7333 80.6797 15.04C82.173 14.3467 83.9197 14 85.9197 14C87.1997 14 88.413 14.1467 89.5597 14.44C90.733 14.7333 91.6397 15.12 92.2797 15.6L91.0797 17.96ZM105.366 14C106.7 14 107.833 14.2133 108.766 14.64C109.726 15.04 110.513 15.6 111.126 16.32C111.74 17.0133 112.18 17.8267 112.446 18.76C112.74 19.6667 112.886 20.64 112.886 21.68C112.886 23.1733 112.646 24.6267 112.166 26.04C111.686 27.4533 110.966 28.7067 110.006 29.8C109.046 30.8933 107.846 31.7867 106.406 32.48C104.966 33.1467 103.286 33.48 101.366 33.48C100.033 33.48 98.8729 33.28 97.8863 32.88C96.9263 32.48 96.1396 31.9333 95.5263 31.24C94.9129 30.52 94.4596 29.7067 94.1663 28.8C93.8729 27.8667 93.7262 26.88 93.7262 25.84C93.7262 24.3733 93.9796 22.9333 94.4863 21.52C94.9929 20.1067 95.7263 18.84 96.6863 17.72C97.6729 16.6 98.8863 15.7067 100.326 15.04C101.793 14.3467 103.473 14 105.366 14ZM101.806 31.36C103.14 31.36 104.3 31.0933 105.286 30.56C106.3 30 107.14 29.28 107.806 28.4C108.5 27.52 109.006 26.5333 109.326 25.44C109.673 24.32 109.846 23.2 109.846 22.08C109.846 21.28 109.753 20.5333 109.566 19.84C109.38 19.12 109.073 18.4933 108.646 17.96C108.246 17.4267 107.726 17.0133 107.086 16.72C106.446 16.4 105.673 16.24 104.766 16.24C103.433 16.24 102.26 16.52 101.246 17.08C100.233 17.6133 99.3929 18.32 98.7263 19.2C98.0596 20.08 97.5529 21.08 97.2063 22.2C96.8863 23.2933 96.7263 24.4 96.7263 25.52C96.7263 26.2933 96.8196 27.04 97.0063 27.76C97.1929 28.4533 97.4863 29.0667 97.8863 29.6C98.3129 30.1333 98.8463 30.56 99.4863 30.88C100.126 31.2 100.9 31.36 101.806 31.36ZM128.504 33L131.104 20.84C131.211 20.3333 131.264 19.84 131.264 19.36C131.264 18.2667 130.971 17.4933 130.384 17.04C129.798 16.5867 129.038 16.36 128.104 16.36C126.744 16.36 125.424 16.7867 124.144 17.64C122.891 18.4667 121.864 19.6533 121.064 21.2L118.544 33H115.744L119.664 14.6H121.864L121.424 18.04H121.584C122.171 16.92 123.104 15.9733 124.384 15.2C125.664 14.4 127.184 14 128.944 14C130.544 14 131.798 14.36 132.704 15.08C133.638 15.7733 134.118 16.76 134.144 18.04C134.918 16.9733 135.931 16.04 137.184 15.24C138.464 14.4133 140.011 14 141.824 14C142.518 14 143.171 14.08 143.784 14.24C144.424 14.4 144.971 14.6667 145.424 15.04C145.904 15.3867 146.278 15.8533 146.544 16.44C146.838 17 146.984 17.6933 146.984 18.52C146.984 19.1067 146.904 19.76 146.744 20.48L144.064 33H141.264L143.864 20.84C143.971 20.3333 144.024 19.84 144.024 19.36C144.024 18.2667 143.731 17.4933 143.144 17.04C142.558 16.5867 141.798 16.36 140.864 16.36C139.504 16.36 138.184 16.7867 136.904 17.64C135.651 18.4667 134.624 19.6533 133.824 21.2L131.304 33H128.504ZM162.44 14C164.44 14 165.96 14.4667 167 15.4C168.04 16.3067 168.56 17.6 168.56 19.28C168.56 20.0533 168.44 20.8267 168.2 21.6C167.96 22.3467 167.72 22.88 167.48 23.2H153.88C153.72 23.9733 153.64 24.7333 153.64 25.48C153.64 26.28 153.734 27.04 153.92 27.76C154.134 28.4533 154.44 29.0667 154.84 29.6C155.267 30.1333 155.8 30.56 156.44 30.88C157.107 31.2 157.88 31.36 158.76 31.36C159.4 31.36 160.04 31.2933 160.68 31.16C161.347 31 161.974 30.8133 162.56 30.6C163.174 30.36 163.747 30.1067 164.28 29.84C164.84 29.5733 165.334 29.3067 165.76 29.04V31.32C165.36 31.5333 164.88 31.7733 164.32 32.04C163.76 32.28 163.147 32.5067 162.48 32.72C161.814 32.9333 161.094 33.1067 160.32 33.24C159.574 33.4 158.8 33.48 158 33.48C156.747 33.48 155.654 33.28 154.72 32.88C153.814 32.4533 153.054 31.8933 152.44 31.2C151.827 30.5067 151.36 29.6933 151.04 28.76C150.747 27.8267 150.6 26.84 150.6 25.8C150.6 24.3067 150.88 22.8533 151.44 21.44C152 20.0267 152.8 18.7733 153.84 17.68C154.88 16.56 156.12 15.6667 157.56 15C159.027 14.3333 160.654 14 162.44 14ZM161.84 16.24C160 16.24 158.48 16.7067 157.28 17.64C156.08 18.5733 155.174 19.72 154.56 21.08H165.64C165.694 20.9467 165.747 20.8 165.8 20.64C165.88 20.4533 165.92 20.12 165.92 19.64C165.92 18.52 165.52 17.68 164.72 17.12C163.92 16.5333 162.96 16.24 161.84 16.24ZM184.44 16.48H181.36L181.68 15L184.92 14.6L186.72 9.04H188.84L187.64 14.6H191.96L191.56 16.48H187.24L184.52 29.24C184.44 29.64 184.4 29.9867 184.4 30.28C184.4 30.7067 184.494 30.9867 184.68 31.12C184.894 31.2533 185.214 31.32 185.64 31.32C186.254 31.32 186.827 31.2267 187.36 31.04C187.894 30.8533 188.36 30.6267 188.76 30.36L188.88 32.48C188.4 32.6933 187.76 32.9067 186.96 33.12C186.187 33.3333 185.36 33.44 184.48 33.44C183.28 33.44 182.48 33.2133 182.08 32.76C181.68 32.28 181.48 31.7067 181.48 31.04C181.48 30.7733 181.507 30.4933 181.56 30.2C181.614 29.9067 181.667 29.6133 181.72 29.32L184.44 16.48ZM204.546 14C205.879 14 207.013 14.2133 207.946 14.64C208.906 15.04 209.693 15.6 210.306 16.32C210.919 17.0133 211.359 17.8267 211.626 18.76C211.919 19.6667 212.066 20.64 212.066 21.68C212.066 23.1733 211.826 24.6267 211.346 26.04C210.866 27.4533 210.146 28.7067 209.186 29.8C208.226 30.8933 207.026 31.7867 205.586 32.48C204.146 33.1467 202.466 33.48 200.546 33.48C199.213 33.48 198.053 33.28 197.066 32.88C196.106 32.48 195.319 31.9333 194.706 31.24C194.093 30.52 193.639 29.7067 193.346 28.8C193.053 27.8667 192.906 26.88 192.906 25.84C192.906 24.3733 193.159 22.9333 193.666 21.52C194.173 20.1067 194.906 18.84 195.866 17.72C196.853 16.6 198.066 15.7067 199.506 15.04C200.973 14.3467 202.653 14 204.546 14ZM200.986 31.36C202.319 31.36 203.479 31.0933 204.466 30.56C205.479 30 206.319 29.28 206.986 28.4C207.679 27.52 208.186 26.5333 208.506 25.44C208.853 24.32 209.026 23.2 209.026 22.08C209.026 21.28 208.933 20.5333 208.746 19.84C208.559 19.12 208.253 18.4933 207.826 17.96C207.426 17.4267 206.906 17.0133 206.266 16.72C205.626 16.4 204.853 16.24 203.946 16.24C202.613 16.24 201.439 16.52 200.426 17.08C199.413 17.6133 198.573 18.32 197.906 19.2C197.239 20.08 196.733 21.08 196.386 22.2C196.066 23.2933 195.906 24.4 195.906 25.52C195.906 26.2933 195.999 27.04 196.186 27.76C196.373 28.4533 196.666 29.0667 197.066 29.6C197.493 30.1333 198.026 30.56 198.666 30.88C199.306 31.2 200.079 31.36 200.986 31.36ZM225.609 33L231.649 4.44H238.649C240.062 4.44 241.315 4.68 242.409 5.16C243.502 5.61333 244.355 6.32 244.969 7.28C245.609 8.24 245.929 9.48 245.929 11C245.929 12.3067 245.675 13.4533 245.169 14.44C244.662 15.4 243.955 16.2 243.049 16.84C242.169 17.4533 241.115 17.88 239.889 18.12V18.32C241.062 18.6667 242.049 19.32 242.849 20.28C243.675 21.24 244.089 22.52 244.089 24.12C244.089 26.0667 243.635 27.7067 242.729 29.04C241.822 30.3467 240.569 31.3333 238.969 32C237.395 32.6667 235.582 33 233.529 33H225.609ZM233.649 29.96C234.715 29.96 235.662 29.84 236.489 29.6C237.315 29.3333 238.009 28.9467 238.569 28.44C239.155 27.9333 239.595 27.32 239.889 26.6C240.182 25.88 240.329 25.0533 240.329 24.12C240.329 22.84 239.942 21.76 239.169 20.88C238.422 20 237.129 19.56 235.289 19.56H232.009L229.809 29.96H233.649ZM236.129 16.6C237.249 16.6 238.262 16.4133 239.169 16.04C240.102 15.6667 240.835 15.1067 241.369 14.36C241.929 13.5867 242.209 12.6133 242.209 11.44C242.209 10.1867 241.835 9.22667 241.089 8.56C240.369 7.86667 239.142 7.52 237.409 7.52H234.569L232.649 16.6H236.129ZM234.609 6.56L235.889 0.399998H238.289L237.009 6.56H234.609ZM239.809 6.56L241.089 0.399998H243.489L242.209 6.56H239.809ZM228.129 36.92L229.409 30.76H231.809L230.529 36.92H228.129ZM233.329 36.92L234.609 30.76H237.009L235.729 36.92H233.329ZM249.56 33H246.76L250.68 14.6H253.48L249.56 33ZM251.44 8.24C251.44 7.92 251.507 7.61333 251.64 7.32C251.8 7.02666 251.987 6.77333 252.2 6.56C252.44 6.32 252.707 6.13333 253 6C253.32 5.86667 253.64 5.8 253.96 5.8C254.44 5.8 254.827 5.98667 255.12 6.36C255.44 6.70667 255.6 7.10666 255.6 7.56C255.6 8.2 255.333 8.74667 254.8 9.2C254.267 9.65333 253.693 9.88 253.08 9.88C252.6 9.88 252.2 9.72 251.88 9.4C251.587 9.08 251.44 8.69333 251.44 8.24ZM260.065 16.48H256.985L257.305 15L260.545 14.6L262.345 9.04H264.465L263.265 14.6H267.585L267.185 16.48H262.865L260.145 29.24C260.065 29.64 260.025 29.9867 260.025 30.28C260.025 30.7067 260.119 30.9867 260.305 31.12C260.519 31.2533 260.839 31.32 261.265 31.32C261.879 31.32 262.452 31.2267 262.985 31.04C263.519 30.8533 263.985 30.6267 264.385 30.36L264.505 32.48C264.025 32.6933 263.385 32.9067 262.585 33.12C261.812 33.3333 260.985 33.44 260.105 33.44C258.905 33.44 258.105 33.2133 257.705 32.76C257.305 32.28 257.105 31.7067 257.105 31.04C257.105 30.7733 257.132 30.4933 257.185 30.2C257.239 29.9067 257.292 29.6133 257.345 29.32L260.065 16.48ZM274.769 13.64C274.769 14.1733 274.889 14.6267 275.129 15C275.369 15.3733 275.716 15.72 276.169 16.04C276.649 16.3333 277.249 16.6267 277.969 16.92C278.689 17.1867 279.529 17.4933 280.489 17.84C281.289 18.1333 282.076 18.4533 282.849 18.8C283.649 19.1467 284.342 19.5867 284.929 20.12C285.542 20.6267 286.036 21.24 286.409 21.96C286.782 22.6533 286.969 23.5067 286.969 24.52C286.969 26.12 286.636 27.4933 285.969 28.64C285.329 29.76 284.476 30.68 283.409 31.4C282.369 32.12 281.169 32.6533 279.809 33C278.449 33.32 277.062 33.48 275.649 33.48C273.916 33.48 272.342 33.2667 270.929 32.84C269.542 32.4133 268.369 31.8933 267.409 31.28L268.889 28.36C269.316 28.7067 269.742 29.04 270.169 29.36C270.622 29.6533 271.116 29.9067 271.649 30.12C272.209 30.3333 272.836 30.5067 273.529 30.64C274.222 30.7733 275.036 30.84 275.969 30.84C277.382 30.84 278.569 30.7067 279.529 30.44C280.516 30.1733 281.316 29.8133 281.929 29.36C282.542 28.88 282.982 28.3333 283.249 27.72C283.542 27.08 283.689 26.4133 283.689 25.72C283.689 24.9733 283.516 24.3333 283.169 23.8C282.822 23.2667 282.369 22.8 281.809 22.4C281.249 22 280.622 21.6667 279.929 21.4C279.236 21.1067 278.556 20.84 277.889 20.6C276.956 20.28 276.102 19.9333 275.329 19.56C274.582 19.16 273.942 18.72 273.409 18.24C272.876 17.76 272.462 17.2133 272.169 16.6C271.876 15.96 271.729 15.2267 271.729 14.4C271.729 13.0133 271.996 11.8133 272.529 10.8C273.062 9.78667 273.782 8.96 274.689 8.32C275.622 7.65333 276.702 7.17333 277.929 6.88C279.156 6.56 280.462 6.4 281.849 6.4C283.289 6.4 284.649 6.54667 285.929 6.84C287.209 7.13333 288.262 7.49333 289.089 7.92L287.609 11C287.262 10.6267 286.822 10.32 286.289 10.08C285.782 9.81333 285.236 9.61333 284.649 9.48C284.062 9.32 283.462 9.21333 282.849 9.16C282.236 9.08 281.662 9.04 281.129 9.04C279.182 9.04 277.636 9.42666 276.489 10.2C275.342 10.9467 274.769 12.0933 274.769 13.64ZM310.878 14.6L306.998 33H304.798L305.198 29.72H305.038C304.185 30.7067 303.065 31.5867 301.678 32.36C300.292 33.1067 298.745 33.48 297.038 33.48C295.945 33.48 294.998 33.2933 294.198 32.92C293.398 32.52 292.732 31.9867 292.198 31.32C291.692 30.6533 291.305 29.88 291.038 29C290.798 28.0933 290.678 27.1467 290.678 26.16C290.678 24.64 290.918 23.16 291.398 21.72C291.905 20.2533 292.625 18.96 293.558 17.84C294.518 16.6933 295.665 15.7733 296.998 15.08C298.358 14.36 299.892 14 301.598 14C303.385 14 304.772 14.3867 305.758 15.16C306.745 15.9333 307.292 16.8933 307.398 18.04L308.678 14.6H310.878ZM297.838 31.12C299.118 31.12 300.452 30.7733 301.838 30.08C303.252 29.3867 304.465 28.3867 305.478 27.08L306.718 21.2C306.558 19.68 305.998 18.4933 305.038 17.64C304.105 16.7867 302.932 16.36 301.518 16.36C300.398 16.36 299.345 16.6133 298.358 17.12C297.398 17.6267 296.572 18.3067 295.878 19.16C295.185 20.0133 294.638 21.0267 294.238 22.2C293.838 23.3733 293.638 24.6133 293.638 25.92C293.638 26.5867 293.705 27.24 293.838 27.88C293.998 28.4933 294.238 29.04 294.558 29.52C294.905 30 295.345 30.3867 295.878 30.68C296.412 30.9733 297.065 31.12 297.838 31.12ZM317.686 16.48H314.606L314.926 15L318.086 14.64C318.406 13.1467 318.726 11.8667 319.046 10.8C319.366 9.73333 319.673 8.84 319.966 8.12C320.286 7.37333 320.593 6.77333 320.886 6.32C321.18 5.84 321.46 5.45333 321.726 5.16C322.366 4.41333 323.086 3.90667 323.886 3.64C324.713 3.34666 325.526 3.2 326.326 3.2C326.433 3.2 326.62 3.21333 326.886 3.24C327.153 3.24 327.446 3.26667 327.766 3.32C328.086 3.34666 328.406 3.41333 328.726 3.52C329.073 3.6 329.393 3.72 329.686 3.88L328.486 6.24C328.406 6.24 328.233 6.2 327.966 6.12C327.7 6.01333 327.393 5.90667 327.046 5.8C326.7 5.66666 326.326 5.54666 325.926 5.44C325.553 5.33333 325.206 5.28 324.886 5.28C324.486 5.28 324.126 5.4 323.806 5.64C323.513 5.85333 323.233 6.22666 322.966 6.76C322.7 7.26667 322.446 7.94667 322.206 8.8C321.966 9.65333 321.713 10.7067 321.446 11.96L320.886 14.6H325.206L324.806 16.48H320.486L314.766 43.4H311.966L317.686 16.48ZM337.167 14C339.167 14 340.687 14.4667 341.727 15.4C342.767 16.3067 343.287 17.6 343.287 19.28C343.287 20.0533 343.167 20.8267 342.927 21.6C342.687 22.3467 342.447 22.88 342.207 23.2H328.607C328.447 23.9733 328.367 24.7333 328.367 25.48C328.367 26.28 328.46 27.04 328.647 27.76C328.86 28.4533 329.167 29.0667 329.567 29.6C329.994 30.1333 330.527 30.56 331.167 30.88C331.834 31.2 332.607 31.36 333.487 31.36C334.127 31.36 334.767 31.2933 335.407 31.16C336.074 31 336.7 30.8133 337.287 30.6C337.9 30.36 338.474 30.1067 339.007 29.84C339.567 29.5733 340.06 29.3067 340.487 29.04V31.32C340.087 31.5333 339.607 31.7733 339.047 32.04C338.487 32.28 337.874 32.5067 337.207 32.72C336.54 32.9333 335.82 33.1067 335.047 33.24C334.3 33.4 333.527 33.48 332.727 33.48C331.474 33.48 330.38 33.28 329.447 32.88C328.54 32.4533 327.78 31.8933 327.167 31.2C326.554 30.5067 326.087 29.6933 325.767 28.76C325.474 27.8267 325.327 26.84 325.327 25.8C325.327 24.3067 325.607 22.8533 326.167 21.44C326.727 20.0267 327.527 18.7733 328.567 17.68C329.607 16.56 330.847 15.6667 332.287 15C333.754 14.3333 335.38 14 337.167 14ZM336.567 16.24C334.727 16.24 333.207 16.7067 332.007 17.64C330.807 18.5733 329.9 19.72 329.287 21.08H340.367C340.42 20.9467 340.474 20.8 340.527 20.64C340.607 20.4533 340.647 20.12 340.647 19.64C340.647 18.52 340.247 17.68 339.447 17.12C338.647 16.5333 337.687 16.24 336.567 16.24Z" fill="#F1F1F1"/>
</g>
<defs>
<filter id="filter0_d_132_2851" x="0.16" y="0.400391" width="347.127" height="51" filterUnits="userSpaceOnUse" color-interpolation-filters="sRGB">
<feFlood flood-opacity="0" result="BackgroundImageFix"/>
<feColorMatrix in="SourceAlpha" type="matrix" values="0 0 0 0 0 0 0 0 0 0 0 0 0 0 0 0 0 0 127 0" result="hardAlpha"/>
<feOffset dy="4"/>
<feGaussianBlur stdDeviation="2"/>
<feComposite in2="hardAlpha" operator="out"/>
<feColorMatrix type="matrix" values="0 0 0 0 0 0 0 0 0 0 0 0 0 0 0 0 0 0 0.25 0"/>
<feBlend mode="normal" in2="BackgroundImageFix" result="effect1_dropShadow_132_2851"/>
<feBlend mode="normal" in="SourceGraphic" in2="effect1_dropShadow_132_2851" result="shape"/>
</filter>
</defs>
</svg>
