<svg width="32" height="27" viewBox="0 0 32 27" fill="none" xmlns="http://www.w3.org/2000/svg">
<path fill-rule="evenodd" clip-rule="evenodd" d="M13.8893 7.30247C13.4449 7.03031 12.8995 7.03318 12.4576 7.31001C12.0156 7.58683 11.7437 8.09585 11.7437 8.6464V18.7576C11.7437 19.3082 12.0156 19.8172 12.4576 20.094C12.8995 20.3708 13.4449 20.3737 13.8893 20.1015L22.1453 15.0459C22.5941 14.7711 22.8714 14.258 22.8714 13.702C22.8714 13.146 22.5941 12.6329 22.1453 12.3581L13.8893 7.30247ZM18.531 13.702L14.6154 16.0998V11.3042L18.531 13.702Z" fill="#1F1F1F"/>
<path fill-rule="evenodd" clip-rule="evenodd" d="M17.2305 0L17.116 0.000177392C17.0419 0.000353679 16.9334 0.000705148 16.7947 0.00140606C16.5173 0.00280769 16.1188 0.00560727 15.6332 0.0112007C14.6627 0.022381 13.3411 0.0447532 11.9401 0.0895803C10.5414 0.134334 9.05211 0.201818 7.74943 0.304128C6.48691 0.403284 5.27789 0.543024 4.51166 0.763677L4.49174 0.769578C3.57269 1.04956 2.73853 1.58573 2.07351 2.32395C1.4085 3.06217 0.936179 3.97628 0.704267 4.97396C0.696499 5.00737 0.68977 5.04106 0.684092 5.07497C0.217007 7.86391 -0.0117129 10.6931 0.000799254 13.5269C-0.0153544 16.3822 0.213384 19.2329 0.684103 22.0429C0.692515 22.0931 0.703229 22.1428 0.716207 22.1919C0.97188 23.1586 1.45478 24.0379 2.11824 24.745C2.78171 25.452 3.60332 25.9629 4.50368 26.2281L4.51166 26.2304C5.27789 26.4511 6.48691 26.5908 7.74943 26.69C9.05211 26.7923 10.5414 26.8598 11.9401 26.9045C13.3411 26.9494 14.6627 26.9717 15.6332 26.9829C16.1188 26.9885 16.5173 26.9913 16.7947 26.9927C16.9334 26.9934 17.0419 26.9938 17.116 26.9939L17.2301 26.9941L17.3454 26.9939C17.4195 26.9938 17.528 26.9934 17.6667 26.9927C17.9442 26.9913 18.3426 26.9885 18.8282 26.9829C19.7988 26.9717 21.1203 26.9494 22.5213 26.9045C23.92 26.8598 23.7224 26.923 25.0251 26.8207C26.2876 26.7215 26.7221 26.4511 27.4883 26.2304L27.5083 26.2245C28.4273 25.9446 29.2615 25.4084 29.9265 24.6702C30.5915 23.9319 31.0638 23.0178 31.2957 22.0202C31.3035 21.9867 31.3102 21.953 31.3159 21.9191C31.7795 19.1508 32.0082 16.3429 31.9992 13.53C32.0154 10.6745 31.7867 7.82335 31.3159 5.01306C31.084 4.01538 30.5915 3.00032 29.9265 2.26211C29.2615 1.52389 28.4273 0.987715 27.5083 0.707736C27.4916 0.702655 27.4748 0.6979 27.458 0.693472C26.7031 0.494997 26.6984 0.465529 25.4354 0.37496C25.2892 0.364478 23.9154 0.122574 22.5176 0.0817366C21.1176 0.0408376 19.7969 0.0204224 18.8268 0.0102198C18.3415 0.00511564 17.9434 0.00256118 17.6661 0.00128248C17.5275 0.000643037 17.4191 0.00032244 17.3451 0.000161727L17.2305 0ZM17.2307 1.54606L17.2307 3.09211L17.3393 3.09226L17.6538 3.09336C17.9265 3.09462 18.3194 3.09714 18.7988 3.10218C19.7581 3.11227 21.0613 3.13244 22.4397 3.17271C23.8202 3.21304 23.7785 3.33881 25.0251 3.42821C26.2864 3.51865 26.263 3.56705 26.7511 3.6907C27.1742 3.82452 27.558 4.07399 27.8652 4.41501C28.1684 4.75154 28.3865 5.16568 28.4992 5.618C28.9327 8.22514 29.143 10.8697 29.1276 13.5183L29.1275 13.5335C29.1362 16.1423 28.9259 18.7464 28.4992 21.3143C28.3865 21.7666 28.1684 22.1807 27.8652 22.5173C27.5545 22.8622 27.1653 23.1135 26.7364 23.2462C26.2643 23.38 26.3003 23.494 25.0251 23.5941C23.7499 23.6943 23.8156 23.7696 22.436 23.8138C21.0586 23.8579 19.7562 23.8799 18.7974 23.891C18.3183 23.8965 17.9257 23.8993 17.6533 23.9006C17.517 23.9013 17.4109 23.9017 17.3391 23.9018H17.1223C17.0505 23.9017 16.9444 23.9013 16.8082 23.9006C16.5357 23.8993 16.1431 23.8965 15.664 23.891C14.7052 23.8799 13.4028 23.8579 12.0254 23.8138C10.6458 23.7696 9.20244 23.7038 7.95833 23.6061C6.67768 23.5055 5.72755 23.379 5.25757 23.2445C4.83515 23.1192 4.4497 22.8791 4.13826 22.5472C3.84098 22.2304 3.62068 21.8401 3.4963 21.4109C3.06588 18.8125 2.85705 16.1771 2.87244 13.5377L2.87245 13.5203C2.86039 10.8917 3.07071 8.26732 3.5008 5.67982C3.6135 5.22751 3.83161 4.81337 4.13476 4.47685C4.44553 4.13188 4.83474 3.88059 5.26362 3.74793C5.73568 3.61406 6.68316 3.48819 7.95833 3.38804C9.20244 3.29033 10.6458 3.22447 12.0254 3.18033C13.4028 3.13625 14.7052 3.11418 15.664 3.10313C16.1431 3.09761 16.5357 3.09486 16.8082 3.09348C16.9444 3.09279 17.0505 3.09245 17.1223 3.09228L17.2293 3.09211L17.2307 1.54606Z" fill="#1F1F1F"/>
</svg>
