<svg width="69" height="68" viewBox="0 0 69 68" fill="none" xmlns="http://www.w3.org/2000/svg">
<g clip-path="url(#clip0_132_2679)">
<path d="M42.1024 55.1894L37.8835 59.4082C37.4935 59.8015 37.0244 60.1078 36.5064 60.3074C35.9883 60.507 35.4326 60.5956 34.875 60.5675C34.3174 60.5395 33.77 60.3953 33.2681 60.1443C32.7661 59.8933 32.3206 59.5409 31.96 59.1098C28.039 54.2484 25.2995 48.5516 23.9619 42.4771C22.673 36.87 22.6305 31.066 23.8373 25.4771C25.0943 19.3967 27.7704 13.7188 31.6488 8.90359C32.002 8.47905 32.4408 8.13401 32.9374 7.89043C33.4339 7.64686 33.9772 7.5101 34.5327 7.48885C35.0882 7.4676 35.6438 7.56234 36.164 7.76702C36.6842 7.9717 37.1577 8.28185 37.5543 8.67772L41.8354 12.9589C42.5347 13.6447 42.9644 14.5578 43.0445 15.5279C43.1246 16.4981 42.8496 17.459 42.2707 18.2318C41.1013 19.7626 40.1108 21.4233 39.318 23.1824C39.0067 23.8777 38.5012 24.4663 37.8615 24.8784C37.2217 25.2905 36.4746 25.5088 35.7086 25.5075L32.1102 25.4811C30.621 31.0333 30.6641 36.9065 32.2348 42.4811L35.8331 42.5075C36.5992 42.5174 37.3497 42.7466 37.9955 43.1681C38.6413 43.5897 39.1555 44.1857 39.477 44.8857C40.2957 46.6565 41.3107 48.332 42.5026 49.8801C43.0995 50.6697 43.3885 51.6469 43.3147 52.6258C43.2409 53.6047 42.8094 54.5171 42.1024 55.1894Z" stroke="#1F1F1F" stroke-width="6" stroke-linecap="round" stroke-linejoin="round"/>
</g>
<defs>
<clipPath id="clip0_132_2679">
<rect width="48.4356" height="47.7309" fill="white" transform="translate(34.5017) rotate(45)"/>
</clipPath>
</defs>
</svg>
