<svg width="66" height="61" viewBox="0 0 66 61" fill="none" xmlns="http://www.w3.org/2000/svg">
<g clip-path="url(#clip0_132_2671)">
<path d="M22.0044 7.72181C26.1707 5.9892 30.8802 5.61555 35.4233 6.65717C39.9663 7.69879 44.0968 10.0993 47.1922 13.4968C47.2103 13.5166 47.2286 13.5362 47.2473 13.5555L54.204 20.8736L45.0532 20.0186C43.5811 19.8811 42.3249 20.898 42.2472 22.2899C42.1695 23.6819 43.2998 24.9218 44.7719 25.0593L60.7638 26.5535C62.2358 26.691 63.4921 25.6741 63.5697 24.2822L64.4136 9.16003C64.4913 7.76808 63.361 6.52818 61.889 6.39064C60.4169 6.2531 59.1607 7.27001 59.083 8.66196L58.5582 18.0658L51.1338 10.2555C47.2676 6.02463 42.1156 3.03527 36.4504 1.73636C30.7716 0.434327 24.8847 0.901388 19.6769 3.06716C14.469 5.23293 10.2224 8.98007 7.57681 13.7439C5.35136 17.7513 4.36033 22.2955 4.68457 26.8812C4.78716 28.332 6.14688 29.3434 7.5733 29.1732C9.05171 28.9968 10.0303 27.6203 9.97537 26.1158C9.84951 22.6715 10.6504 19.2776 12.3244 16.2632C14.4408 12.4521 17.8382 9.45443 22.0044 7.72181Z" fill="#1F1F1F"/>
<path d="M46.3194 51.1847C41.9632 52.4112 37.2328 52.5127 32.841 51.4742C28.4492 50.4356 24.6339 48.3132 21.9702 45.4267C21.9546 45.4099 21.9388 45.3932 21.9226 45.3768L15.8972 39.1472L24.8955 40.2314C26.3429 40.4058 27.7169 39.6352 27.9644 38.5102C28.2119 37.3851 27.2391 36.3317 25.7916 36.1573L10.0665 34.2625C8.61901 34.0881 7.245 34.8587 6.99752 35.9837L4.30901 48.2061C4.06154 49.3312 5.03433 50.3846 6.48179 50.559C7.92925 50.7334 9.30326 49.9628 9.55073 48.8377L11.2226 41.2371L17.6529 47.8857C20.9815 51.4807 25.7409 54.1241 31.2175 55.4192C36.7073 56.7174 42.6204 56.5905 48.0656 55.0574C53.5109 53.5244 58.1935 50.6684 61.4076 46.9198C64.0677 43.8173 65.6027 40.2426 65.8784 36.5747C65.9771 35.262 64.8556 34.3292 63.5011 34.4016C61.9359 34.4853 60.6889 35.8703 60.4572 37.3849C60.0616 39.9711 58.8818 42.4717 56.993 44.6746C54.4217 47.6735 50.6757 49.9583 46.3194 51.1847Z" fill="#1F1F1F"/>
</g>
<defs>
<clipPath id="clip0_132_2671">
<rect width="66" height="61" fill="white"/>
</clipPath>
</defs>
</svg>
