<svg width="61" height="67" viewBox="0 0 61 67" fill="none" xmlns="http://www.w3.org/2000/svg">
<g clip-path="url(#clip0_132_2671)">
<path d="M20.3374 8.48166C24.1881 6.57862 28.5408 6.16822 32.7397 7.3123C36.9386 8.45637 40.7561 11.0929 43.617 14.8247C43.6337 14.8465 43.6507 14.8679 43.6679 14.8892L50.0976 22.9271L41.64 21.988C40.2795 21.8369 39.1184 22.9538 39.0466 24.4827C38.9748 26.0116 40.0195 27.3734 41.38 27.5245L56.1604 29.1656C57.5209 29.3167 58.682 28.1998 58.7538 26.6709L59.5338 10.0613C59.6056 8.53247 58.5609 7.17061 57.2004 7.01955C55.8399 6.86848 54.6788 7.98541 54.607 9.51428L54.122 19.8431L47.2601 11.2646C43.6867 6.61754 38.925 3.33414 33.689 1.90746C28.4404 0.477368 22.9995 0.99037 18.1862 3.36917C13.3729 5.74796 9.44792 9.86367 7.0028 15.0961C4.91458 19.5648 4.00233 24.6412 4.34422 29.756C4.43979 31.1857 5.79104 32.2144 7.17815 32.0177C8.47388 31.834 9.32064 30.6426 9.24648 29.3071C9.02462 25.3116 9.7588 21.3554 11.3907 17.8632C13.3468 13.6773 16.4868 10.3847 20.3374 8.48166Z" fill="#1F1F1F"/>
<path d="M42.8104 56.2183C38.7842 57.5654 34.4121 57.677 30.353 56.5363C26.2939 55.3955 22.7677 53.0644 20.3058 49.894C20.2914 49.8755 20.2768 49.8572 20.2618 49.8391L14.6929 42.9968L23.0095 44.1876C24.3473 44.3792 25.6172 43.5328 25.8459 42.2971C26.0746 41.0614 25.1755 39.9044 23.8377 39.7128L9.30388 37.6316C7.96608 37.44 6.69616 38.2865 6.46743 39.5222L3.9826 52.9467C3.75387 54.1824 4.65297 55.3395 5.99077 55.531C7.32857 55.7226 8.5985 54.8762 8.82722 53.6405L10.3724 45.2923L16.3156 52.5948C19.392 56.5434 23.7909 59.4469 28.8526 60.8693C33.9265 62.2952 39.3916 62.1558 44.4243 60.472C49.4571 58.7881 53.7849 55.6512 56.7555 51.5339C59.2513 48.0747 60.6755 44.081 60.8984 39.9884C60.9696 38.6806 59.8419 37.7113 58.5172 37.7955C57.1325 37.8835 56.0697 39.087 55.9443 40.4524C55.6636 43.5085 54.5455 46.4758 52.6754 49.0679C50.2989 52.3618 46.8366 54.8713 42.8104 56.2183Z" fill="#1F1F1F"/>
</g>
<defs>
<clipPath id="clip0_132_2671">
<rect width="61" height="67" fill="white"/>
</clipPath>
</defs>
</svg>
