<svg width="65" height="65" viewBox="0 0 65 65" fill="none" xmlns="http://www.w3.org/2000/svg">
<path fill-rule="evenodd" clip-rule="evenodd" d="M2.70833 5.41602C1.21256 5.41602 0 6.62858 0 8.12435V43.3327C0 44.8285 1.21256 46.041 2.70833 46.041H6.32888C5.74396 47.2723 5.41667 48.6497 5.41667 50.1035C5.41667 55.3387 9.66063 59.5827 14.8958 59.5827C20.131 59.5827 24.375 55.3387 24.375 50.1035C24.375 48.6497 24.0477 47.2723 23.4628 46.041H41.5372C40.9523 47.2723 40.625 48.6497 40.625 50.1035C40.625 55.3387 44.869 59.5827 50.1042 59.5827C55.3394 59.5827 59.5833 55.3387 59.5833 50.1035C59.5833 48.6497 59.256 47.2723 58.6711 46.041H62.2917C63.7874 46.041 65 44.8285 65 43.3327V29.791C65 29.0727 64.7147 28.3838 64.2067 27.8759L56.0817 19.7509C55.5738 19.243 54.885 18.9577 54.1667 18.9577H46.0417V8.12435C46.0417 6.62858 44.8291 5.41602 43.3333 5.41602H2.70833ZM59.5833 40.6244V30.9128L53.0448 24.3743H46.0417V40.6244H59.5833ZM50.1042 46.041C47.8605 46.041 46.0417 47.8599 46.0417 50.1035C46.0417 52.3472 47.8605 54.166 50.1042 54.166C52.3478 54.166 54.1667 52.3472 54.1667 50.1035C54.1667 47.8599 52.3478 46.041 50.1042 46.041ZM10.8333 50.1035C10.8333 47.8599 12.6522 46.041 14.8958 46.041C17.1395 46.041 18.9583 47.8599 18.9583 50.1035C18.9583 52.3472 17.1395 54.166 14.8958 54.166C12.6522 54.166 10.8333 52.3472 10.8333 50.1035ZM40.625 40.6244H5.41667V10.8327H40.625V40.6244Z" fill="#1F1F1F"/>
</svg>
