<svg width="246" height="246" viewBox="0 0 246 246" fill="none" xmlns="http://www.w3.org/2000/svg">
<path fill-rule="evenodd" clip-rule="evenodd" d="M71.75 77.2168C71.75 48.9122 94.6954 25.9668 123 25.9668C151.305 25.9668 174.25 48.9122 174.25 77.2168C174.25 105.521 151.305 128.467 123 128.467C94.6954 128.467 71.75 105.521 71.75 77.2168ZM123 46.4668C106.017 46.4668 92.25 60.234 92.25 77.2168C92.25 94.1996 106.017 107.967 123 107.967C139.983 107.967 153.75 94.1996 153.75 77.2168C153.75 60.234 139.983 46.4668 123 46.4668ZM45.7608 163.978C55.372 154.366 68.4076 148.967 82 148.967H164C177.592 148.967 190.628 154.366 200.239 163.978C209.85 173.589 215.25 186.624 215.25 200.217V220.717C215.25 225.431 212.067 232.246 207.733 234.393V234.633H207.193C206.487 234.913 205.753 235.067 205 235.067C204.247 235.067 203.513 234.913 202.807 234.633H43.1931C42.4865 234.913 41.7527 235.067 41 235.067C40.2473 235.067 39.5135 234.913 38.8069 234.633H38.2667V234.393C33.9327 232.246 30.75 225.431 30.75 220.717V200.217C30.75 186.624 36.1495 173.589 45.7608 163.978ZM51.25 213.633H194.75V200.217C194.75 192.061 191.51 184.24 185.744 178.473C179.977 172.707 172.155 169.467 164 169.467H82C73.8446 169.467 66.0232 172.707 60.2565 178.473C54.4897 184.24 51.25 192.061 51.25 200.217V213.633Z" fill="#1F1F1F"/>
</svg>
