<svg width="43" height="45" viewBox="0 0 43 45" fill="none" xmlns="http://www.w3.org/2000/svg">
<path fill-rule="evenodd" clip-rule="evenodd" d="M13.0721 14.125C13.0721 8.94733 16.9944 4.75 21.8327 4.75C26.671 4.75 30.5932 8.94733 30.5932 14.125C30.5932 19.3027 26.671 23.5 21.8327 23.5C16.9944 23.5 13.0721 19.3027 13.0721 14.125ZM21.8327 8.5C18.9297 8.5 16.5764 11.0184 16.5764 14.125C16.5764 17.2316 18.9297 19.75 21.8327 19.75C24.7357 19.75 27.089 17.2316 27.089 14.125C27.089 11.0184 24.7357 8.5 21.8327 8.5ZM8.62962 29.9959C10.2725 28.2377 12.5008 27.25 14.8242 27.25H28.8411C31.1645 27.25 33.3928 28.2377 35.0357 29.9959C36.6786 31.754 37.6016 34.1386 37.6016 36.625V40.375C37.6016 41.2374 37.0576 42.4839 36.3167 42.8767V43H35.8495H7.81583H7.3486V42.8767C6.60776 42.4839 6.06372 41.2374 6.06372 40.375V36.625C6.06372 34.1386 6.9867 31.754 8.62962 29.9959ZM9.56793 39H34.0974V36.625C34.0974 35.1332 33.5436 33.7024 32.5579 32.6475C31.5721 31.5926 30.2352 31 28.8411 31H14.8242C13.4302 31 12.0932 31.5926 11.1075 32.6475C10.1217 33.7024 9.56793 35.1332 9.56793 36.625V39Z" fill="#F1F1F1"/>
</svg>
